#N canvas 196 336 518 446 16;
#X obj 226 402 dac~;
#X obj 104 121 tgl 20 0 empty empty on/off 24 10 0 16 #fcfcfc #000000
#000000 0 1;
#X floatatom 104 143 3 0 100 1 gain(dB) - - 0;
#X obj 284 305 pack 0 20;
#X obj 16 150 b;
#X msg 16 179 \; pd dsp 1;
#X obj 284 277 dbtorms;
#X obj 278 62 sel 0 1;
#X msg 412 163 set 0;
#X msg 423 129 set 1;
#X obj 278 91 0;
#X obj 284 334 line~;
#X obj 24 253 inlet~;
#X obj 225 368 *~;
#X obj 271 175 moses 1;
#X obj 311 207 f 1;
#X obj 24 282 hip~ 3;
#X obj 268 371 *~;
#X obj 101 253 inlet~;
#X obj 101 282 hip~ 3;
#X obj 174 251 inlet~;
#X obj 174 280 hip~ 3;
#X connect 1 0 4 0;
#X connect 1 0 7 0;
#X connect 2 0 4 0;
#X connect 2 0 6 0;
#X connect 2 0 14 0;
#X connect 3 0 11 0;
#X connect 4 0 5 0;
#X connect 6 0 3 0;
#X connect 7 0 10 0;
#X connect 7 1 15 0;
#X connect 8 0 1 0;
#X connect 9 0 1 0;
#X connect 10 0 2 0;
#X connect 11 0 13 1;
#X connect 11 0 17 1;
#X connect 12 0 16 0;
#X connect 13 0 0 0;
#X connect 14 0 8 0;
#X connect 14 1 9 0;
#X connect 14 1 15 1;
#X connect 15 0 2 0;
#X connect 16 0 13 0;
#X connect 17 0 0 1;
#X connect 18 0 19 0;
#X connect 19 0 17 0;
#X connect 19 0 13 0;
#X connect 20 0 21 0;
#X connect 21 0 17 0;
#X coords 0 -1 1 1 120 67 1 100 100;
