#N canvas 22 -253 1270 868 16;
#X obj 66 460 inlet~;
#X floatatom 489 103 5 0 0 0 - - - 0;
#N canvas 2 52 450 250 (subpatch) 0;
#X array \$0a 48000 float 2;
#X coords 0 1 48000 -1 500 100 2 0 0;
#X restore 106 174 graph;
#X obj 67 633 tabwrite~ \$0a;
#X obj 283 102 bng 20 50 50 0 empty empty empty 23 10 0 16 #fcfcfc
#000000 #000000;
#X obj 283 126 tgl 20 0 empty empty empty 24 10 0 16 #fcfcfc #000000
#000000 0 1;
#X obj 612 174 vradio 20 1 0 5 empty empty empty 0 -8 0 10 #fcfcfc
#000000 #000000 0;
#X text 633 171 10;
#X text 634 212 0.1;
#X text 635 233 0.01;
#X text 635 254 0.001;
#X text 637 191 1 sec;
#X obj 341 709 tabread4~ \$0a;
#X obj 341 640 vline~;
#X obj 341 746 outlet~;
#X obj 355 480 metro;
#X obj 433 359 max 0.01;
#X obj 433 388 t b f;
#X obj 452 448 /;
#X msg 293 69 0;
#X obj 286 40 t b b;
#X msg 283 547 stop;
#X obj 282 515 sel 0;
#X obj 836 366 sel 0 1 2 3 4;
#X msg 801 481 10;
#X msg 843 481 1;
#X obj 808 546 samplerate~;
#X obj 799 516 t f b;
#X msg 885 481 10;
#X msg 928 480 100;
#X msg 971 480 1000;
#X obj 927 546 samplerate~;
#X obj 930 516 t b f;
#X obj 797 656 s \$0a;
#X msg 798 623 resize \$1;
#X obj 799 578 *;
#X obj 931 578 /;
#X obj 343 514 samplerate~;
#X obj 343 543 * 10;
#X obj 343 572 + 1;
#X msg 342 604 0 \, \$1 10000;
#X floatatom 453 484 5 0 0 0 - - - 0;
#X msg 433 417 1000;
#X obj 784 144 loadbang;
#X msg 784 173 2;
#X floatatom 403 102 6 0 100 0 - - - 0;
#X obj 396 543 *;
#X obj 341 675 +~;
#X obj 155 452 bang~;
#X obj 155 481 timer;
#X obj 217 474 b;
#X obj 227 443 metro;
#X obj 172 102 bng 20 50 50 0 empty empty empty 23 10 0 16 #fcfcfc
#000000 #000000;
#X obj 172 125 tgl 20 0 empty empty empty 24 10 0 16 #fcfcfc #000000
#000000 0 1;
#X msg 185 69 0;
#X obj 174 40 t b b;
#X text 306 102 play from;
#N canvas 0 50 450 300 delw 0;
#X obj 118 75 delwrite~ \$0-del 10;
#X obj 105 38 inlet~;
#X obj 96 155 outlet~;
#X connect 1 0 0 0;
#X connect 1 0 2 0;
#X restore 66 493 pd delw;
#N canvas 0 50 450 300 delr 0;
#X obj 37 37 inlet~;
#X obj 166 69 inlet;
#X obj 65 155 outlet~;
#X obj 65 126 delread~ \$0-del;
#X connect 1 0 3 0;
#X connect 3 0 2 0;
#X restore 67 526 pd delr;
#X obj 155 510 expr 2-$f1;
#X text 610 151 length:;
#X msg 46 430 stop;
#X text 194 122 -repeat-;
#X obj 172 148 bng 20 50 50 0 empty empty empty 23 10 0 16 #fcfcfc
#000000 #000000;
#X text 192 146 stop recording;
#X text 545 103 per second;
#X text 466 100 :;
#X obj 368 150 bng 20 50 50 0 empty empty empty 23 10 0 16 #fcfcfc
#000000 #000000;
#X text 391 148 clear;
#X obj 507 129 bng 20 50 50 0 empty empty empty 23 10 0 16 #fcfcfc
#000000 #000000;
#X obj 507 151 bng 20 50 50 0 empty empty empty 23 10 0 16 #fcfcfc
#000000 #000000;
#X text 530 149 save;
#X text 530 127 open file;
#X obj 330 372 s \$0a;
#X msg 330 342 const 0;
#X obj 584 433 openpanel;
#X msg 708 486 const 0;
#X obj 585 496 symbol \$0a;
#X obj 585 606 soundfiler;
#X obj 708 515 s \$0a;
#X obj 545 738 symbol \$0a;
#X obj 544 827 soundfiler;
#X obj 545 681 savepanel;
#X obj 453 312 < 2;
#X obj 371 311 spigot;
#X obj 545 767 pack s s;
#X obj 545 709 t b s;
#X msg 544 797 write \$2 \$1;
#X obj 870 236 loadbang;
#X msg 870 265 \; pd dsp 1;
#X obj 581 543 pack s s;
#X msg 585 572 read \$2 \$1;
#X obj 716 597 print;
#X obj 584 462 t b s b;
#X obj 68 556 clip~ -1.1 1.1;
#X obj 244 585 bng 15 250 50 0 empty empty empty 17 7 0 10 #fcfcfc
#000000 #000000;
#X obj 484 46 loadbang;
#X msg 484 75 1;
#X msg 1036 480 0.1;
#X msg 1079 479 0.01;
#X msg 1122 479 0.001;
#X obj 1083 598 s \$0-blanktime;
#X obj 157 358 r \$0-blanktime;
#X obj 157 418 max;
#X obj 157 387 t b f;
#X obj 1100 529 * 1000;
#X obj 1100 558 + 0;
#X connect 0 0 57 0;
#X connect 1 0 16 0;
#X connect 4 0 20 0;
#X connect 5 0 15 0;
#X connect 5 0 22 0;
#X connect 6 0 23 0;
#X connect 6 0 83 0;
#X connect 12 0 14 0;
#X connect 13 0 47 0;
#X connect 15 0 37 0;
#X connect 16 0 17 0;
#X connect 17 0 42 0;
#X connect 17 1 18 1;
#X connect 18 0 15 1;
#X connect 18 0 41 0;
#X connect 18 0 103 0;
#X connect 19 0 5 0;
#X connect 20 0 37 0;
#X connect 20 1 19 0;
#X connect 21 0 13 0;
#X connect 22 0 21 0;
#X connect 23 0 24 0;
#X connect 23 1 25 0;
#X connect 23 2 28 0;
#X connect 23 2 98 0;
#X connect 23 3 29 0;
#X connect 23 3 99 0;
#X connect 23 4 30 0;
#X connect 23 4 100 0;
#X connect 24 0 27 0;
#X connect 24 0 105 0;
#X connect 25 0 27 0;
#X connect 25 0 105 0;
#X connect 26 0 35 1;
#X connect 27 0 35 0;
#X connect 27 1 26 0;
#X connect 28 0 32 0;
#X connect 29 0 32 0;
#X connect 30 0 32 0;
#X connect 31 0 36 0;
#X connect 32 0 31 0;
#X connect 32 1 36 1;
#X connect 34 0 33 0;
#X connect 35 0 34 0;
#X connect 36 0 34 0;
#X connect 37 0 38 0;
#X connect 37 0 46 0;
#X connect 38 0 39 0;
#X connect 39 0 40 0;
#X connect 40 0 13 0;
#X connect 42 0 18 0;
#X connect 43 0 44 0;
#X connect 44 0 6 0;
#X connect 45 0 46 1;
#X connect 46 0 47 1;
#X connect 47 0 12 0;
#X connect 48 0 49 0;
#X connect 49 0 59 0;
#X connect 50 0 49 1;
#X connect 50 0 95 0;
#X connect 50 0 3 0;
#X connect 51 0 50 0;
#X connect 52 0 55 0;
#X connect 52 0 84 0;
#X connect 53 0 51 0;
#X connect 54 0 53 0;
#X connect 55 0 50 0;
#X connect 55 1 54 0;
#X connect 57 0 58 0;
#X connect 58 0 94 0;
#X connect 59 0 58 1;
#X connect 61 0 3 0;
#X connect 63 0 54 0;
#X connect 63 0 61 0;
#X connect 67 0 74 0;
#X connect 69 0 75 0;
#X connect 70 0 82 0;
#X connect 74 0 73 0;
#X connect 75 0 93 0;
#X connect 76 0 79 0;
#X connect 77 0 90 0;
#X connect 80 0 85 0;
#X connect 82 0 86 0;
#X connect 83 0 84 1;
#X connect 84 0 74 0;
#X connect 85 0 87 0;
#X connect 86 0 80 0;
#X connect 86 1 85 1;
#X connect 87 0 81 0;
#X connect 88 0 89 0;
#X connect 90 0 91 0;
#X connect 91 0 78 0;
#X connect 91 0 92 0;
#X connect 93 0 77 0;
#X connect 93 1 90 1;
#X connect 93 2 76 0;
#X connect 94 0 3 0;
#X connect 96 0 97 0;
#X connect 97 0 1 0;
#X connect 98 0 105 0;
#X connect 99 0 105 0;
#X connect 100 0 105 0;
#X connect 102 0 104 0;
#X connect 103 0 51 1;
#X connect 104 0 103 0;
#X connect 104 1 103 1;
#X connect 105 0 106 0;
#X connect 106 0 101 0;
#X coords 0 -1 1 1 594 180 1 100 100;
