#N canvas 72 132 497 412 16;
#X obj 23 172 inlet~;
#X obj 110 174 inlet~;
#X obj 23 313 outlet~;
#X obj 22 279 samphold~;
#X obj 109 204 *~ -1e+20;
#X obj 109 232 clip~ -1 0;
#X connect 0 0 3 0;
#X connect 1 0 4 0;
#X connect 3 0 2 0;
#X connect 4 0 5 0;
#X connect 5 0 3 1;
#X coords 0 -1 1 1 90 25 1 100 100;
