#N canvas 102 117 543 568 16;
#X floatatom 103 123 7 0 0 1 sec - -;
#X obj 36 460 outlet~;
#X obj 360 58 inlet~;
#N canvas 833 363 450 300 write 0;
#X obj 76 32 inlet~;
#X obj 75 143 outlet~;
#X obj 121 108 delwrite~ \$0-del 10000;
#X connect 0 0 2 0;
#X connect 0 0 1 0;
#X restore 45 276 pd write;
#N canvas 633 293 450 300 read 0;
#X obj 90 46 inlet~;
#X obj 87 208 outlet~;
#X obj 88 167 vd~ \$0-del;
#X obj 10 48 inlet~;
#X connect 0 0 2 0;
#X connect 2 0 1 0;
#X restore 45 320 pd read;
#X obj 114 159 t f b b;
#X obj 202 195 samplerate~;
#X obj 148 226 /;
#X msg 148 193 1000;
#X obj 100 54 loadbang;
#X obj 365 355 -~;
#X obj 59 245 inlet~;
#X obj 364 311 *~ 1000;
#X obj 55 376 -~;
#X obj 55 406 *~;
#X obj 364 282 +~;
#X obj 383 201 pack 0 100;
#X obj 383 230 line~;
#X obj 364 396 *~;
#X obj 199 351 / -1000;
#X obj 362 444 clip~ 0 1;
#X obj 274 94 savestate;
#X obj 277 48 f;
#X connect 0 0 5 0;
#X connect 0 0 22 1;
#X connect 2 0 15 0;
#X connect 3 0 4 0;
#X connect 4 0 1 0;
#X connect 4 0 13 1;
#X connect 5 0 16 0;
#X connect 5 1 8 0;
#X connect 5 2 6 0;
#X connect 6 0 7 1;
#X connect 6 0 19 0;
#X connect 7 0 10 1;
#X connect 8 0 7 0;
#X connect 9 0 0 0;
#X connect 10 0 18 0;
#X connect 11 0 3 0;
#X connect 11 0 13 0;
#X connect 12 0 10 0;
#X connect 12 0 4 1;
#X connect 13 0 14 0;
#X connect 14 0 1 0;
#X connect 15 0 12 0;
#X connect 16 0 17 0;
#X connect 17 0 15 1;
#X connect 18 0 20 0;
#X connect 19 0 18 1;
#X connect 20 0 14 1;
#X connect 21 0 0 0;
#X connect 21 1 22 0;
#X connect 22 0 21 0;
#X coords 0 -1 1 1 110 47 1 100 100;
