#N canvas 106 91 378 317 10;
#X obj 77 188 osc~;
#X obj 111 188 osc~;
#X obj 148 188 osc~;
#X obj 130 76 unpack 1 1 1;
#X floatatom 130 103 5 0 0 0 - - -;
#X floatatom 164 103 5 0 0 0 - - -;
#X floatatom 199 103 5 0 0 0 - - -;
#X obj 77 158 *;
#X obj 111 157 *;
#X obj 142 156 *;
#X obj 77 217 *~;
#X obj 111 215 *~;
#X obj 148 216 *~;
#X obj 35 127 bng 15 250 50 0 empty empty empty 17 7 0 10 -262144 -1
-1;
#X msg 35 158 -0.25;
#X obj 130 44 inlet;
#X obj 35 43 inlet;
#X text 31 26 freq;
#X text 123 24 harmonics;
#X obj 77 245 outlet~;
#X obj 131 246 outlet~;
#X obj 185 246 outlet~;
#X obj 237 44 inlet;
#X text 233 24 amplitues;
#X obj 237 156 unpack 1 1 1;
#X floatatom 237 183 5 0 0 0 - - -;
#X floatatom 271 182 5 0 0 0 - - -;
#X floatatom 306 182 5 0 0 0 - - -;
#X connect 0 0 10 0;
#X connect 1 0 11 0;
#X connect 2 0 12 0;
#X connect 3 0 4 0;
#X connect 3 1 5 0;
#X connect 3 2 6 0;
#X connect 4 0 7 1;
#X connect 5 0 8 1;
#X connect 6 0 9 1;
#X connect 7 0 0 0;
#X connect 8 0 1 0;
#X connect 9 0 2 0;
#X connect 10 0 19 0;
#X connect 11 0 20 0;
#X connect 12 0 21 0;
#X connect 13 0 14 0;
#X connect 14 0 0 1;
#X connect 14 0 1 1;
#X connect 14 0 2 1;
#X connect 15 0 3 0;
#X connect 16 0 7 0;
#X connect 16 0 8 0;
#X connect 16 0 13 0;
#X connect 16 0 9 0;
#X connect 22 0 24 0;
#X connect 24 0 25 0;
#X connect 24 1 26 0;
#X connect 24 2 27 0;
#X connect 25 0 10 1;
#X connect 26 0 11 1;
#X connect 27 0 12 1;
