#N canvas 310 131 1028 631 10;
#X obj 80 200 osc~;
#X obj 112 199 osc~;
#X obj 145 199 osc~;
#X msg 186 64 1 3 5;
#X obj 186 95 unpack 1 1 1;
#X floatatom 186 129 5 0 0 0 - - -;
#X floatatom 230 129 5 0 0 0 - - -;
#X floatatom 276 130 5 0 0 0 - - -;
#X obj 80 161 *;
#X obj 112 161 *;
#X obj 145 161 *;
#X obj 80 232 *~;
#X obj 112 232 *~;
#X obj 145 233 *~;
#X obj 185 199 pow -1;
#X obj 229 198 pow -1;
#X obj 275 199 pow -1;
#X text 313 130 harmonic;
#X obj 35 112 bng 15 250 50 0 empty empty empty 17 7 0 10 -262144 -1
-1;
#X msg 34 161 -0.25;
#X obj 35 41 inlet;
#X text 74 41 frequency;
#X obj 186 37 loadbang;
#X obj 80 270 outlet~;
#X connect 0 0 11 0;
#X connect 1 0 12 0;
#X connect 2 0 13 0;
#X connect 3 0 4 0;
#X connect 4 0 5 0;
#X connect 4 1 6 0;
#X connect 4 2 7 0;
#X connect 5 0 8 1;
#X connect 5 0 14 0;
#X connect 6 0 9 1;
#X connect 6 0 15 0;
#X connect 7 0 10 1;
#X connect 7 0 16 0;
#X connect 8 0 0 0;
#X connect 9 0 1 0;
#X connect 10 0 2 0;
#X connect 11 0 23 0;
#X connect 12 0 23 0;
#X connect 13 0 23 0;
#X connect 14 0 11 1;
#X connect 15 0 12 1;
#X connect 16 0 13 1;
#X connect 18 0 19 0;
#X connect 19 0 0 1;
#X connect 19 0 1 1;
#X connect 19 0 2 1;
#X connect 20 0 18 0;
#X connect 20 0 8 0;
#X connect 20 0 9 0;
#X connect 20 0 10 0;
#X connect 22 0 3 0;
