#N canvas 1008 284 674 524 12;
#X obj 232 352 osc~;
#X obj 264 351 osc~;
#X obj 297 351 osc~;
#X floatatom 405 91 5 0 0 0 - - -;
#X floatatom 449 91 5 0 0 0 - - -;
#X floatatom 495 92 5 0 0 0 - - -;
#X obj 234 217 *;
#X obj 266 217 *;
#X obj 299 217 *;
#X obj 232 384 *~;
#X obj 264 384 *~;
#X obj 297 385 *~;
#X obj 404 161 pow -1;
#X obj 448 160 pow -1;
#X obj 494 161 pow -1;
#X obj 189 168 bng 15 250 50 0 empty empty empty 17 7 0 10 -262144
-1 -1;
#X msg 188 217 -0.25;
#X obj 189 97 inlet;
#X obj 405 -1 loadbang;
#X obj 284 489 outlet~;
#X msg 405 26 1 3 5 7 9;
#X obj 405 57 unpack 1 1 1 1 1;
#X floatatom 542 92 5 0 0 0 - - -;
#X obj 541 161 pow -1;
#X floatatom 589 92 5 0 0 0 - - -;
#X obj 588 161 pow -1;
#X obj 330 352 osc~;
#X obj 330 386 *~;
#X obj 363 353 osc~;
#X obj 363 387 *~;
#X obj 326 217 *;
#X obj 356 217 *;
#X connect 0 0 9 0;
#X connect 1 0 10 0;
#X connect 2 0 11 0;
#X connect 3 0 6 1;
#X connect 3 0 12 0;
#X connect 4 0 7 1;
#X connect 4 0 13 0;
#X connect 5 0 8 1;
#X connect 5 0 14 0;
#X connect 6 0 0 0;
#X connect 7 0 1 0;
#X connect 8 0 2 0;
#X connect 9 0 19 0;
#X connect 10 0 19 0;
#X connect 11 0 19 0;
#X connect 12 0 9 1;
#X connect 13 0 10 1;
#X connect 14 0 11 1;
#X connect 15 0 16 0;
#X connect 16 0 0 1;
#X connect 16 0 1 1;
#X connect 16 0 2 1;
#X connect 16 0 26 1;
#X connect 16 0 28 1;
#X connect 17 0 15 0;
#X connect 17 0 6 0;
#X connect 17 0 7 0;
#X connect 17 0 8 0;
#X connect 17 0 30 0;
#X connect 17 0 31 0;
#X connect 18 0 20 0;
#X connect 20 0 21 0;
#X connect 21 0 3 0;
#X connect 21 1 4 0;
#X connect 21 2 5 0;
#X connect 21 3 22 0;
#X connect 21 4 24 0;
#X connect 22 0 23 0;
#X connect 22 0 30 1;
#X connect 23 0 27 1;
#X connect 24 0 25 0;
#X connect 24 0 31 1;
#X connect 25 0 29 1;
#X connect 26 0 27 0;
#X connect 28 0 29 0;
#X connect 30 0 26 0;
#X connect 31 0 28 0;
