#N canvas 1282 151 793 770 12;
#N canvas 0 50 450 250 (subpatch) 0;
#X array chord0 4 float 3;
#A 0 0 7 16 24;
#X coords 0 36 4 0 50 50 1 0 0;
#X restore 57 445 graph;
#X obj 63 128 random 6;
#X obj 63 189 route 0 1 2 3 4 5;
#X obj 59 224 bng 15 250 50 0 empty empty empty 17 7 0 10 -262144 -1
-1;
#X obj 58 269 tabread chord1;
#X floatatom 58 246 5 0 0 0 - - -;
#X obj 65 79 bng 15 250 50 0 empty empty empty 17 7 0 10 -262144 -1
-1;
#X floatatom 63 372 5 0 0 0 - - -;
#X obj 60 294 bng 15 250 50 0 empty empty empty 17 7 0 10 -262144 -1
-1;
#X obj 59 339 tabread chord1;
#X floatatom 59 316 5 0 0 0 - - -;
#X floatatom 107 374 5 0 0 0 - - -;
#X obj 180 224 bng 15 250 50 0 empty empty empty 17 7 0 10 -262144
-1 -1;
#X obj 179 269 tabread chord1;
#X floatatom 179 246 5 0 0 0 - - -;
#X floatatom 151 374 5 0 0 0 - - -;
#X obj 184 295 bng 15 250 50 0 empty empty empty 17 7 0 10 -262144
-1 -1;
#X obj 183 340 tabread chord1;
#X floatatom 183 317 5 0 0 0 - - -;
#X floatatom 195 375 5 0 0 0 - - -;
#N canvas 0 50 450 250 (subpatch) 0;
#X array chord1 4 float 3;
#A 0 0 7 12 16;
#X coords 0 36 4 0 50 50 1 0 0;
#X restore 113 444 graph;
#X floatatom 63 155 5 0 0 0 - - -;
#X msg 198 109 0;
#X msg 198 172 3;
#X msg 198 151 2;
#X msg 198 130 1;
#N canvas 0 50 450 250 (subpatch) 0;
#X array chord2 4 float 3;
#A 0 0 12 16 19;
#X coords 0 36 4 0 50 50 1 0 0;
#X restore 168 444 graph;
#N canvas 0 50 450 250 (subpatch) 0;
#X array chord3 4 float 3;
#A 0 0 12 19 28;
#X coords 0 36 4 0 50 50 1 0 0;
#X restore 225 445 graph;
#N canvas 0 50 450 250 (subpatch) 0;
#X array chord4 4 float 3;
#A 0 0 16 19 24;
#X coords 0 36 4 0 50 50 1 0 0;
#X restore 282 446 graph;
#N canvas 0 50 450 250 (subpatch) 0;
#X array chord5 4 float 3;
#A 0 0 16 24 31;
#X coords 0 36 4 0 50 50 1 0 0;
#X restore 339 446 graph;
#X msg 246 170 set chord2;
#X msg 246 128 set chord0;
#X msg 247 149 set chord1;
#X msg 246 191 set chord3;
#X msg 246 212 set chord4;
#X msg 247 233 set chord5;
#X obj 356 160 bng 15 250 50 0 empty empty empty 17 7 0 10 -262144
-1 -1;
#X obj 65 46 inlet;
#X obj 62 405 outlet;
#X obj 129 405 outlet;
#X obj 203 405 outlet;
#X obj 274 405 outlet;
#X text 138 42 // random chord choose form 0-5 \, for major I;
#X text 526 234 1 3 5 1;
#X text 518 199 1 3 5 1;
#X msg 357 218 \; chord1 0 0 7 12 16;
#X msg 357 183 \; chord0 0 0 7 16 24;
#X msg 357 253 \; chord2 0 0 12 16 19;
#X msg 358 288 \; chord3 0 0 12 19 28;
#X msg 357 323 \; chord4 0 0 16 19 24;
#X msg 357 358 \; chord5 0 0 16 24 31;
#X connect 1 0 21 0;
#X connect 2 0 31 0;
#X connect 2 0 3 0;
#X connect 2 0 8 0;
#X connect 2 0 12 0;
#X connect 2 0 16 0;
#X connect 2 1 3 0;
#X connect 2 1 8 0;
#X connect 2 1 12 0;
#X connect 2 1 16 0;
#X connect 2 1 32 0;
#X connect 2 2 3 0;
#X connect 2 2 8 0;
#X connect 2 2 12 0;
#X connect 2 2 16 0;
#X connect 2 2 30 0;
#X connect 2 3 3 0;
#X connect 2 3 8 0;
#X connect 2 3 12 0;
#X connect 2 3 16 0;
#X connect 2 3 33 0;
#X connect 2 4 3 0;
#X connect 2 4 8 0;
#X connect 2 4 12 0;
#X connect 2 4 16 0;
#X connect 2 4 34 0;
#X connect 2 5 3 0;
#X connect 2 5 8 0;
#X connect 2 5 12 0;
#X connect 2 5 16 0;
#X connect 2 5 35 0;
#X connect 2 6 3 0;
#X connect 2 6 8 0;
#X connect 2 6 16 0;
#X connect 3 0 5 0;
#X connect 4 0 7 0;
#X connect 5 0 4 0;
#X connect 6 0 1 0;
#X connect 6 0 22 0;
#X connect 6 0 25 0;
#X connect 6 0 24 0;
#X connect 6 0 23 0;
#X connect 7 0 38 0;
#X connect 8 0 10 0;
#X connect 9 0 11 0;
#X connect 10 0 9 0;
#X connect 11 0 39 0;
#X connect 12 0 14 0;
#X connect 13 0 15 0;
#X connect 14 0 13 0;
#X connect 15 0 40 0;
#X connect 16 0 18 0;
#X connect 17 0 19 0;
#X connect 18 0 17 0;
#X connect 19 0 41 0;
#X connect 21 0 2 0;
#X connect 22 0 5 0;
#X connect 23 0 18 0;
#X connect 24 0 14 0;
#X connect 25 0 10 0;
#X connect 30 0 4 0;
#X connect 30 0 9 0;
#X connect 30 0 13 0;
#X connect 30 0 17 0;
#X connect 31 0 4 0;
#X connect 31 0 9 0;
#X connect 31 0 13 0;
#X connect 31 0 17 0;
#X connect 32 0 9 0;
#X connect 32 0 4 0;
#X connect 32 0 13 0;
#X connect 32 0 17 0;
#X connect 33 0 4 0;
#X connect 33 0 9 0;
#X connect 33 0 13 0;
#X connect 33 0 17 0;
#X connect 34 0 4 0;
#X connect 34 0 9 0;
#X connect 34 0 13 0;
#X connect 34 0 17 0;
#X connect 35 0 17 0;
#X connect 35 0 13 0;
#X connect 35 0 9 0;
#X connect 35 0 4 0;
#X connect 36 0 46 0;
#X connect 36 0 45 0;
#X connect 36 0 47 0;
#X connect 36 0 48 0;
#X connect 36 0 49 0;
#X connect 36 0 50 0;
#X connect 37 0 6 0;
