#N canvas 200 85 284 267 10;
#X obj 39 166 myFMSynth;
#X floatatom 39 89 5 0 0 0 - - -;
#X floatatom 92 90 5 0 0 0 - - -;
#X floatatom 141 90 5 0 0 0 - - -;
#X text 126 90 I;
#X obj 141 118 bng 15 250 50 0 empty empty empty 17 7 0 10 -262144
-1 -1;
#X text 74 90 fm;
#X text 16 90 fc;
#X obj 39 36 inlet;
#X obj 39 197 outlet~;
#X text 41 16 f0;
#X text 170 66 2 - 4;
#X msg 141 66 10;
#X obj 141 140 myASR 200 800 100;
#X connect 0 0 9 0;
#X connect 1 0 5 0;
#X connect 1 0 0 0;
#X connect 2 0 5 0;
#X connect 2 0 0 1;
#X connect 3 0 5 0;
#X connect 3 0 0 2;
#X connect 5 0 13 0;
#X connect 8 0 12 0;
#X connect 8 0 1 0;
#X connect 8 0 2 0;
#X connect 12 0 3 0;
#X connect 13 0 0 3;
