#N struct line-label float x float y float z symbol label;
#N canvas 1416 0 928 1028 12;
#X obj 88 61 pulse;
#A saved 100 1000;
#X obj 24 179 bandpass;
#A saved 500 10;
#X obj 176 176 bandpass;
#A saved 1500 10;
#X obj 338 168 bandpass;
#A saved 2500 10;
#X obj 111 300 multiply;
#X obj 275 294 constant;
#A saved 1 10;
#X obj 83 363 output;
#X obj 227 363 record;
#X obj 42 590 spectrum;
#X connect 0 0 1 0;
#X connect 0 0 2 0;
#X connect 0 0 3 0;
#X connect 1 0 4 0;
#X connect 1 0 7 0;
#X connect 2 0 4 0;
#X connect 3 0 4 0;
#X connect 4 0 6 1;
#X connect 5 0 4 1;
#X connect 7 0 8 0;
