#N struct line-label float x float y float z symbol label;
#N canvas 227 123 1091 764 16;
#X obj 130 41 sinusoid;
#A saved 440;
#X obj 447 95 noise;
#X obj 660 265 meter;
#X obj 661 395 snapshot;
#X obj 53 265 record;
#X text 402 9 right or control-click on any of these for help:;
#X text 31 51 signal;
#X text 14 70 generators:;
#X text 638 65 I/O:;
#X obj 447 39 constant;
#A saved 1 0;
#X text 26 157 modifiers:;
#X obj 137 141 multiply;
#X obj 137 171 switch;
#A saved 0;
#X obj 693 44 output;
#X obj 818 44 input;
#X obj 241 144 vdelay;
#A saved 0;
#X obj 53 453 spectrum;
#X obj 363 145 bandpass;
#A saved 1000 0;
#X obj 500 145 lowpass;
#A saved 1000;
#X obj 500 197 highpass;
#A saved 4000;
#X obj 756 397 pitchamp;
#X obj 770 320 threshold;
#A saved 0 0.1;
#X obj 637 145 between;
#A saved 1 0;
#X obj 638 222 samp-hold;
#X text 35 234 analysis and display:;
#X obj 239 40 sawtooth;
#A saved 100;
#X obj 342 39 pulse;
#A saved 0 0;
#X obj 879 149 adsr;
#A saved 0 1 50 1;
#X text 793 154 control:;
#X text 30 9 Acoustics library version 10;
