#N canvas 352 291 497 423 16;
#X obj 103 120 tgl 20 0 empty empty on/off 24 10 0 16 -262144 -1 -1
1 1;
#X floatatom 103 142 3 0 100 1 gain(dB) - -;
#X obj 103 267 pack 0 20;
#X obj 240 245 b;
#X msg 240 274 \; pd dsp 1;
#X obj 103 239 dbtorms;
#X obj 278 62 sel 0 1;
#X msg 412 163 set 0;
#X msg 423 129 set 1;
#X obj 278 91 0;
#X obj 103 296 line~;
#X obj 29 321 *~;
#X obj 271 175 moses 1;
#X obj 311 207 f 1;
#X obj 29 279 hip~ 3;
#X obj 29 250 adc~;
#X obj 30 355 outlet~;
#X connect 0 0 3 0;
#X connect 0 0 6 0;
#X connect 1 0 3 0;
#X connect 1 0 5 0;
#X connect 1 0 12 0;
#X connect 2 0 10 0;
#X connect 3 0 4 0;
#X connect 5 0 2 0;
#X connect 6 0 9 0;
#X connect 6 1 13 0;
#X connect 7 0 0 0;
#X connect 8 0 0 0;
#X connect 9 0 1 0;
#X connect 10 0 11 1;
#X connect 11 0 16 0;
#X connect 12 0 7 0;
#X connect 12 1 8 0;
#X connect 12 1 13 1;
#X connect 13 0 1 0;
#X connect 14 0 11 0;
#X connect 15 0 14 0;
#X coords 0 -1 1 1 120 67 1 100 100;
