#N canvas 1 31 744 430 16;
#X obj 74 34 inlet~;
#X obj 399 129 loadbang;
#X msg 400 165 \; pd dsp 1;
#X obj 41 356 outlet~;
#X obj 194 285 outlet~;
#X obj 41 158 moses 20;
#X obj 42 325 sig~;
#X obj 42 193 swap;
#X obj 41 251 route 1;
#X obj 41 279 mtof;
#X obj 194 249 dbtorms;
#X obj 42 221 pack;
#X obj 198 46 env~ 1024;
#X obj 49 74 sigmund~ -npts 1024 -npeak 10 -maxfreq 4000;
#X obj 48 124 f;
#X obj 248 170 > 60;
#X obj 136 159 moses 103;
#X obj 211 113 t b f;
#X connect 0 0 12 0;
#X connect 0 0 13 0;
#X connect 1 0 2 0;
#X connect 5 1 16 0;
#X connect 6 0 3 0;
#X connect 7 0 11 0;
#X connect 7 1 11 1;
#X connect 8 0 9 0;
#X connect 9 0 6 0;
#X connect 10 0 4 0;
#X connect 11 0 8 0;
#X connect 12 0 17 0;
#X connect 13 0 14 1;
#X connect 14 0 5 0;
#X connect 15 0 7 1;
#X connect 16 0 7 0;
#X connect 17 0 14 0;
#X connect 17 1 10 0;
#X connect 17 1 15 0;
#X coords 0 -1 1 1 85 25 1 100 100;
