#N canvas 130 343 485 543 16;
#X floatatom 103 142 7 0 0 1 Hz - -;
#X obj 54 183 +~ 0;
#X obj 56 268 outlet~;
#X obj 54 56 inlet~;
#X obj 103 120 bng 20 50 50 0 empty empty reset 23 10 0 16 -262144
-1 -1;
#X msg 121 182 0;
#X obj 221 111 f;
#X obj 220 145 savestate;
#X obj 194 39 block~ 256 1 4;
#X obj 54 228 phasor~;
#X obj 187 240 samphold~;
#X obj 187 269 clip~ 0 20000;
#X obj 345 259 samplerate~;
#X obj 345 229 metro 1000;
#X obj 345 198 loadbang;
#X obj 345 321 sig~;
#X obj 315 352 /~;
#X obj 92 314 *~ -1;
#X obj 92 343 +~ 1;
#X obj 92 372 *~;
#X obj 48 423 min~;
#X obj 322 456 snapshot~;
#X floatatom 322 485 7 0 0 0 - - -;
#X obj 28 504 outlet~;
#N canvas 0 50 1112 800 resample-filter 0;
#X obj 101 112 inlet;
#X floatatom 869 238 5 0 0 0 - - -;
#X obj 65 236 t f f;
#X text 243 76 characteristic frequency \, 0(DC) to 1(Nyquist);
#X obj 65 275 expr (1 - $f2*$f2) / (1 + $f2*$f2 + 2*$f2*cos($f1)),
f 20;
#X obj 275 277 expr 2*$f2*sin($f1) / (1 + $f2*$f2 + 2*$f2*cos($f1))
, f 22;
#X obj 868 183 clip 0 1;
#X text 118 172 "theta" in units of pi/2;
#X text 163 207 conjugate pair of pole/zero locations:;
#X text 306 350 imaginary part: 2rsin(th)/(...), f 15;
#X obj 101 145 t b b b b f;
#X obj 868 210 expr tan($f1*1.5708);
#X msg 64 176 0.25;
#X msg 565 181 0.75;
#X obj 65 206 * 1.5708;
#X obj 65 413 * 2;
#X obj 273 456 * 2;
#X obj 42 523 biquad~;
#X obj 133 488 pack 0 0 0 0 0;
#X obj 65 380 t f f;
#X obj 42 492 inlet~;
#X obj 42 605 outlet~;
#X text 274 51 4-pole Butterworth low-pass filter \, fixed;
#X obj 184 48 loadbang;
#X floatatom 180 110 5 0 0 0 - - -;
#X text 321 462 normalizer;
#X text 133 342 real part: (1-r*r)/(1+r*r- 2rcos(th)), f 15;
#X obj 111 411 expr -$f1*$f1 -$f2*$f2, f 13;
#X obj 564 236 t f f;
#X obj 564 284 expr (1 - $f2*$f2) / (1 + $f2*$f2 + 2*$f2*cos($f1))
, f 20;
#X obj 777 284 expr 2*$f2*sin($f1) / (1 + $f2*$f2 + 2*$f2*cos($f1))
, f 22;
#X obj 565 207 * 1.5708;
#X obj 564 422 * 2;
#X obj 793 467 * 2;
#X obj 637 497 pack 0 0 0 0 0;
#X obj 564 389 t f f;
#X obj 647 423 expr -$f1*$f1 -$f2*$f2, f 13;
#X obj 42 554 biquad~;
#X obj 256 411 expr 0.25*(($f1-1)* ($f1-1)+$f2*$f2), f 19;
#X obj 787 422 expr 0.25*(($f1-1)* ($f1-1)+$f2*$f2), f 19;
#X msg 184 77 0.2;
#X connect 0 0 10 0;
#X connect 1 0 4 1;
#X connect 1 0 5 1;
#X connect 1 0 29 1;
#X connect 1 0 30 1;
#X connect 2 0 4 0;
#X connect 2 1 5 0;
#X connect 4 0 19 0;
#X connect 5 0 27 1;
#X connect 5 0 38 1;
#X connect 6 0 11 0;
#X connect 10 2 12 0;
#X connect 10 3 13 0;
#X connect 10 4 6 0;
#X connect 11 0 1 0;
#X connect 12 0 14 0;
#X connect 13 0 31 0;
#X connect 14 0 2 0;
#X connect 15 0 18 0;
#X connect 16 0 18 3;
#X connect 17 0 37 0;
#X connect 18 0 17 0;
#X connect 19 0 15 0;
#X connect 19 1 27 0;
#X connect 19 1 38 0;
#X connect 20 0 17 0;
#X connect 23 0 40 0;
#X connect 24 0 10 0;
#X connect 27 0 18 1;
#X connect 28 0 29 0;
#X connect 28 1 30 0;
#X connect 29 0 35 0;
#X connect 30 0 36 1;
#X connect 30 0 39 1;
#X connect 31 0 28 0;
#X connect 32 0 34 0;
#X connect 33 0 34 3;
#X connect 34 0 37 0;
#X connect 35 0 32 0;
#X connect 35 1 36 0;
#X connect 35 1 39 0;
#X connect 36 0 34 1;
#X connect 37 0 21 0;
#X connect 38 0 16 0;
#X connect 38 0 18 4;
#X connect 38 0 18 2;
#X connect 39 0 33 0;
#X connect 39 0 34 4;
#X connect 39 0 34 2;
#X connect 40 0 24 0;
#X restore 26 463 pd resample-filter 0.2;
#X obj 331 431 bng 15 250 50 0 empty empty empty 17 7 0 10 -262144
-1 -1;
#X obj 345 288 / 4;
#X connect 0 0 1 1;
#X connect 0 0 6 1;
#X connect 1 0 9 0;
#X connect 1 0 10 0;
#X connect 3 0 1 0;
#X connect 4 0 5 0;
#X connect 5 0 9 1;
#X connect 6 0 7 0;
#X connect 6 0 0 0;
#X connect 7 0 0 0;
#X connect 7 1 6 0;
#X connect 9 0 10 1;
#X connect 9 0 17 0;
#X connect 9 0 20 0;
#X connect 10 0 11 0;
#X connect 11 0 16 1;
#X connect 12 0 26 0;
#X connect 13 0 12 0;
#X connect 14 0 13 0;
#X connect 15 0 16 0;
#X connect 16 0 19 1;
#X connect 16 0 21 0;
#X connect 17 0 18 0;
#X connect 18 0 19 0;
#X connect 19 0 20 1;
#X connect 20 0 24 0;
#X connect 21 0 22 0;
#X connect 24 0 23 0;
#X connect 25 0 21 0;
#X connect 26 0 15 0;
#X coords 0 -1 1 1 100 67 1 100 100;
