#N canvas 255 91 531 427 16;
#X floatatom 103 123 7 0 10000 1 value - -;
#X obj 25 364 outlet~;
#X obj 24 48 inlet~;
#X floatatom 103 146 7 0.002 10 1 width - -;
#X obj 24 198 threshold~;
#X obj 108 270 delay;
#X obj 25 228 b;
#X obj 25 256 1;
#X obj 26 336 sig~;
#X msg 176 193 set \$1 2 \$1 2;
#X obj 107 298 0;
#X obj 158 235 * 1000;
#X obj 143 5 loadbang;
#X obj 416 225 f;
#X obj 416 254 pack;
#X obj 328 137 savestate;
#X obj 328 318 unpack;
#X obj 143 34 spigot 1;
#X msg 143 69 0.1;
#X msg 240 33 0;
#X connect 0 0 9 0;
#X connect 0 0 13 1;
#X connect 2 0 4 0;
#X connect 3 0 11 0;
#X connect 3 0 14 1;
#X connect 4 0 6 0;
#X connect 5 0 10 0;
#X connect 6 0 5 0;
#X connect 6 0 7 0;
#X connect 7 0 8 0;
#X connect 8 0 1 0;
#X connect 9 0 4 0;
#X connect 10 0 8 0;
#X connect 11 0 5 1;
#X connect 12 0 17 0;
#X connect 13 0 14 0;
#X connect 14 0 15 0;
#X connect 15 0 16 0;
#X connect 15 0 19 0;
#X connect 15 1 13 0;
#X connect 16 0 0 0;
#X connect 16 1 3 0;
#X connect 17 0 18 0;
#X connect 18 0 3 0;
#X connect 19 0 17 1;
#X coords 0 -1 1 1 130 70 1 100 100;
