#N canvas 62 97 1831 860 10;
#X obj 480 785 output;
#X obj 490 602 myFMClarinet;
#X floatatom 490 574 5 0 0 0 - - -;
#X obj 69 416 writesf~ 2;
#X msg 20 375 start;
#X msg 65 375 stop;
#X obj 20 320 bng 15 250 50 0 empty empty empty 17 7 0 10 -262144 -1
-1;
#N canvas 0 22 450 278 (subpatch) 0;
#X array freq 7 float 3;
#A 0 5 7 4 9 2 7 0;
#X coords 0 12 7 0 200 100 1 0 0;
#X restore 826 268 graph;
#X floatatom 489 457 5 0 0 0 - - -;
#X floatatom 490 520 5 0 0 0 - - -;
#X obj 489 492 st2tf;
#X obj 490 549 * 220;
#X text 527 517 tf;
#X floatatom 489 426 5 0 0 0 - - -;
#N canvas 0 22 450 278 (subpatch) 0;
#X array rhythm 7 float 3;
#A 0 1500 1500 1500 1500 1500 1500 3000;
#X coords 0 6000 7 0 200 80 1 0 0;
#X restore 826 90 graph;
#X obj 489 334 bng 15 250 50 0 empty empty empty 17 7 0 10 -262144
-1 -1;
#X obj 557 336 bng 15 250 50 0 empty empty empty 17 7 0 10 -262144
-1 -1;
#X text 541 316 reset;
#X floatatom 489 380 5 0 0 0 - - -;
#X obj 494 158 bng 15 250 50 0 empty empty empty 17 7 0 10 -262144
-1 -1;
#X obj 568 157 bng 15 250 50 0 empty empty empty 17 7 0 10 -262144
-1 -1;
#X text 557 140 reset;
#X floatatom 489 270 5 0 0 0 - - -;
#X obj 428 325 delay;
#X obj 526 102 t b b;
#X msg 601 234 stop;
#X obj 102 296 t b b;
#X floatatom 495 216 5 0 0 0 - - -;
#X obj 102 266 bng 15 250 50 0 empty empty empty 17 7 0 10 -262144
-1 -1;
#X text 17 242 write to a sound file;
#X obj 483 689 *~;
#X obj 498 663 line~;
#X msg 535 633 0 20;
#N canvas 0 22 450 278 (subpatch) 0;
#X array freq1 7 float 3;
#A 0 9 11 7 12 5 11 4;
#X coords 0 12 7 0 200 100 1 0 0;
#X restore 821 467 graph;
#N canvas 0 22 450 278 (subpatch) 0;
#X array freq2 7 float 3;
#A 0 12 14 11 16 9 14 0;
#X coords 0 16 7 0 200 100 1 0 0;
#X restore 822 669 graph;
#X floatatom 676 595 5 0 0 0 - - -;
#X floatatom 675 478 5 0 0 0 - - -;
#X floatatom 676 541 5 0 0 0 - - -;
#X obj 675 513 st2tf;
#X obj 676 570 * 220;
#X text 713 538 tf;
#X floatatom 675 447 5 0 0 0 - - -;
#X obj 675 355 bng 15 250 50 0 empty empty empty 17 7 0 10 -262144
-1 -1;
#X obj 743 357 bng 15 250 50 0 empty empty empty 17 7 0 10 -262144
-1 -1;
#X text 727 337 reset;
#X floatatom 675 401 5 0 0 0 - - -;
#X obj 680 179 bng 15 250 50 0 empty empty empty 17 7 0 10 -262144
-1 -1;
#X obj 754 178 bng 15 250 50 0 empty empty empty 17 7 0 10 -262144
-1 -1;
#X text 743 161 reset;
#X floatatom 675 291 5 0 0 0 - - -;
#X obj 679 325 delay;
#X obj 712 123 t b b;
#X msg 787 255 stop;
#X floatatom 681 237 5 0 0 0 - - -;
#X obj 669 710 *~;
#X obj 741 645 line~;
#X msg 778 615 0 20;
#X obj 672 648 myFMBrass;
#X obj 127 102 bng 15 250 50 0 empty empty empty 17 7 0 10 -262144
-1 -1;
#X msg 826 182 \; freq resize 7 \; freq bounds 0 12 7 0 \; freq xlabel
0 0 1 2 3 4 5 6 7 \; freq ylabel 0 1 6 12 \; freq 0 5 7 4 9 2 7 0 \;
;
#X obj 490 190 myCounter 7;
#X obj 489 360 myCounter 7;
#X msg 823 378 \; freq1 resize 7 \; freq1 bounds 0 12 7 0 \; freq1
xlabel 0 0 1 2 3 4 5 6 7 \; freq1 ylabel 0 1 6 12 \; freq1 0 9 11 7
12 5 11 4 \;;
#X obj 677 210 myCounter 7;
#X obj 675 381 myCounter 7;
#X floatatom 316 552 5 0 0 0 - - -;
#X floatatom 315 435 5 0 0 0 - - -;
#X floatatom 316 498 5 0 0 0 - - -;
#X obj 315 470 st2tf;
#X obj 316 527 * 220;
#X text 353 495 tf;
#X floatatom 315 404 5 0 0 0 - - -;
#X obj 315 312 bng 15 250 50 0 empty empty empty 17 7 0 10 -262144
-1 -1;
#X obj 383 314 bng 15 250 50 0 empty empty empty 17 7 0 10 -262144
-1 -1;
#X text 367 294 reset;
#X floatatom 315 358 5 0 0 0 - - -;
#X obj 320 136 bng 15 250 50 0 empty empty empty 17 7 0 10 -262144
-1 -1;
#X obj 394 135 bng 15 250 50 0 empty empty empty 17 7 0 10 -262144
-1 -1;
#X text 383 118 reset;
#X floatatom 315 248 5 0 0 0 - - -;
#X obj 319 282 delay;
#X obj 352 80 t b b;
#X msg 427 212 stop;
#X floatatom 321 194 5 0 0 0 - - -;
#X obj 309 667 *~;
#X obj 324 641 line~;
#X msg 361 611 0 20;
#X obj 316 168 myCounter 7;
#X obj 315 338 myCounter 7;
#X obj 321 578 myFMBell;
#X obj 315 220 tabread rhythm;
#X obj 315 382 tabread freq;
#X obj 489 404 tabread freq2;
#X obj 675 425 tabread freq1;
#X msg 822 577 \; freq2 resize 7 \; freq2 bounds 0 16 7 0 \; freq2
xlabel 0 0 1 2 3 4 5 6 7 \; freq2 ylabel 0 1 6 12 \; freq2 0 12 14
11 16 9 14 0 \;;
#X obj 489 242 tabread rhythm;
#X obj 675 263 tabread rhythm;
#X msg 741 616 0.2 20;
#X msg 243 540 stop;
#X obj 207 697 *~;
#X obj 246 656 line~;
#X msg 254 618 0 20;
#X obj 185 614 myFMBrass;
#X msg 189 538 0.2 20;
#X msg 324 612 0.8 20;
#X msg 498 634 0.3 20;
#X obj 170 766 +~;
#X text 68 73 Click to hear patch;
#X msg 827 24 \; rhythm resize 7 \; rhythm bounds 0 6000 7 0 \; rhythm
0 1500 1500 1500 1500 1500 1500 3000 \;;
#X obj 65 350 delay 13500;
#X obj 555 69 delay 1100;
#X obj 670 77 delay 400;
#X obj 1452 702 myFMZheng, f 11;
#N canvas 0 22 450 278 (subpatch) 0;
#X array rhythm2 57 float 3;
#A 0 187.5 187.5 187.5 187.5 187.5 187.5 187.5 187.5 187.5 187.5 187.5
187.5 187.5 187.5 187.5 187.5 187.5 187.5 187.5 187.5 187.5 187.5 187.5
187.5 187.5 187.5 187.5 187.5 187.5 187.5 187.5 187.5 187.5 187.5 187.5
187.5 187.5 187.5 187.5 187.5 187.5 187.5 187.5 187.5 187.5 187.5 187.5
187.5 187.5 187.5 187.5 187.5 187.5 187.5 187.5 187.5 1500;
#X coords 0 6000 57 0 200 80 1 0 0;
#X restore 1062 200 graph;
#N canvas 0 22 450 278 (subpatch) 0;
#X array freq3 57 float 3;
#A 0 9 9 9 9 9 9 9 9 11 11 11 11 11 11 11 11 7 7 7 7 7 7 7 7 12 12
12 12 12 12 12 12 5 5 5 5 5 5 5 5 11 11 11 11 11 11 11 11 4 4 4 4 4
4 4 4 0;
#X coords 0 12 57 0 200 100 1 0 0;
#X restore 1050 400 graph;
#X obj 142 159 bng 15 250 50 0 empty empty empty 17 7 0 10 -262144
-1 -1;
#X text 67 145 Click to hear patch version2;
#X floatatom 1462 655 5 0 0 0 - - -;
#X floatatom 1461 538 5 0 0 0 - - -;
#X floatatom 1462 601 5 0 0 0 - - -;
#X obj 1461 573 st2tf;
#X obj 1462 630 * 220;
#X text 1499 598 tf;
#X floatatom 1461 507 5 0 0 0 - - -;
#X obj 1461 415 bng 15 250 50 0 empty empty empty 17 7 0 10 -262144
-1 -1;
#X obj 1529 417 bng 15 250 50 0 empty empty empty 17 7 0 10 -262144
-1 -1;
#X text 1513 397 reset;
#X floatatom 1461 461 5 0 0 0 - - -;
#X obj 1466 239 bng 15 250 50 0 empty empty empty 17 7 0 10 -262144
-1 -1;
#X obj 1540 238 bng 15 250 50 0 empty empty empty 17 7 0 10 -262144
-1 -1;
#X text 1529 221 reset;
#X floatatom 1461 351 5 0 0 0 - - -;
#X obj 1465 385 delay;
#X obj 1498 183 t b b;
#X msg 1573 315 stop;
#X floatatom 1467 297 5 0 0 0 - - -;
#X obj 1455 770 *~;
#X obj 1527 705 line~;
#X msg 1564 675 0 20;
#X obj 1461 323 tabread rhythm2;
#X obj 1461 485 tabread freq3;
#X msg 1527 676 0.4 20;
#X msg 1059 292 \; freq3 resize 31 \; freq3 bounds 0 12 31 0 \; freq3
xlabel 0 0 5 10 15 25 \; freq3 ylabel 0 1 6 12 \; freq3 0 9 9 9 9 11
11 11 11 7 7 7 7 12 12 12 12 5 5 5 5 11 11 11 11 4 4 4 4 1 1 1 \;;
#X msg 1063 101 \; rhythm2 resize 29 \; rhythm2 bounds 0 6000 31 0
\; rhythm2 0 375 375 375 375 375 375 375 375 375 375 375 375 375 375
375 375 375 375 375 375 375 375 375 375 375 375 375 375 1500 \;;
#X msg 1046 531 \; rhythm2 resize 57 \; rhythm2 bounds 0 6000 57 0
\; rhythm2 0 187.5 187.5 187.5 187.5 187.5 187.5 187.5 187.5 187.5
187.5 187.5 187.5 187.5 187.5 187.5 187.5 187.5 187.5 187.5 187.5 187.5
187.5 187.5 187.5 187.5 187.5 187.5 187.5 187.5 187.5 187.5 187.5 187.5
187.5 187.5 187.5 187.5 187.5 187.5 187.5 187.5 187.5 187.5 187.5 187.5
187.5 187.5 187.5 187.5 187.5 187.5 187.5 187.5 187.5 187.5 187.5 1500
\;;
#X obj 1463 270 myCounter 57;
#X msg 1045 646 \; freq3 resize 57 \; freq3 bounds 0 12 57 0 \; freq3
xlabel 0 0 5 10 15 25 \; freq3 ylabel 0 1 6 12 \; freq3 0 9 9 9 9 9
9 9 9 11 11 11 11 11 11 11 11 7 7 7 7 7 7 7 7 12 12 12 12 12 12 12
12 5 5 5 5 5 5 5 5 11 11 11 11 11 11 11 11 4 4 4 4 4 4 4 4 0 \;;
#X obj 1461 441 myCounter 57;
#X msg 95 327 open A5_listenHere2.wav;
#X obj 115 818 *~ 0.5;
#X connect 1 0 30 0;
#X connect 2 0 1 0;
#X connect 4 0 3 0;
#X connect 5 0 3 0;
#X connect 6 0 4 0;
#X connect 6 0 109 0;
#X connect 8 0 10 0;
#X connect 9 0 11 0;
#X connect 10 0 9 0;
#X connect 11 0 2 0;
#X connect 13 0 8 0;
#X connect 15 0 61 0;
#X connect 16 0 61 1;
#X connect 18 0 92 0;
#X connect 19 0 60 0;
#X connect 20 0 60 1;
#X connect 22 0 23 0;
#X connect 23 0 19 0;
#X connect 23 0 15 0;
#X connect 24 0 15 0;
#X connect 24 0 19 0;
#X connect 24 1 20 0;
#X connect 24 1 16 0;
#X connect 24 1 105 0;
#X connect 25 0 23 0;
#X connect 25 0 32 0;
#X connect 26 0 6 0;
#X connect 26 1 148 0;
#X connect 27 0 95 0;
#X connect 28 0 26 0;
#X connect 28 0 58 0;
#X connect 28 0 115 0;
#X connect 30 0 0 0;
#X connect 30 0 106 0;
#X connect 31 0 30 1;
#X connect 32 0 31 0;
#X connect 35 0 57 0;
#X connect 36 0 38 0;
#X connect 37 0 39 0;
#X connect 38 0 37 0;
#X connect 39 0 35 0;
#X connect 41 0 36 0;
#X connect 42 0 64 0;
#X connect 43 0 64 1;
#X connect 45 0 93 0;
#X connect 46 0 63 0;
#X connect 47 0 63 1;
#X connect 49 0 50 0;
#X connect 50 0 46 0;
#X connect 50 0 42 0;
#X connect 51 0 42 0;
#X connect 51 0 46 0;
#X connect 51 1 47 0;
#X connect 51 1 43 0;
#X connect 51 1 97 0;
#X connect 52 0 50 0;
#X connect 52 0 56 0;
#X connect 53 0 96 0;
#X connect 54 0 0 0;
#X connect 54 0 106 0;
#X connect 55 0 54 1;
#X connect 56 0 55 0;
#X connect 57 0 54 0;
#X connect 58 0 81 0;
#X connect 58 0 110 0;
#X connect 58 0 111 0;
#X connect 60 0 27 0;
#X connect 60 1 25 0;
#X connect 61 0 18 0;
#X connect 63 0 53 0;
#X connect 63 1 52 0;
#X connect 64 0 45 0;
#X connect 65 0 89 0;
#X connect 65 0 102 0;
#X connect 66 0 68 0;
#X connect 67 0 69 0;
#X connect 68 0 67 0;
#X connect 69 0 65 0;
#X connect 71 0 66 0;
#X connect 72 0 88 0;
#X connect 73 0 88 1;
#X connect 75 0 91 0;
#X connect 76 0 87 0;
#X connect 77 0 87 1;
#X connect 79 0 80 0;
#X connect 80 0 76 0;
#X connect 80 0 72 0;
#X connect 81 0 72 0;
#X connect 81 0 76 0;
#X connect 81 1 77 0;
#X connect 81 1 73 0;
#X connect 81 1 104 0;
#X connect 81 1 103 0;
#X connect 82 0 80 0;
#X connect 82 0 86 0;
#X connect 83 0 90 0;
#X connect 84 0 0 0;
#X connect 84 0 106 0;
#X connect 85 0 84 1;
#X connect 86 0 85 0;
#X connect 87 0 83 0;
#X connect 87 1 82 0;
#X connect 87 1 98 0;
#X connect 88 0 75 0;
#X connect 89 0 84 0;
#X connect 90 0 79 0;
#X connect 91 0 71 0;
#X connect 92 0 13 0;
#X connect 93 0 41 0;
#X connect 95 0 22 0;
#X connect 96 0 49 0;
#X connect 97 0 55 0;
#X connect 98 0 101 0;
#X connect 99 0 0 0;
#X connect 99 0 106 0;
#X connect 100 0 99 1;
#X connect 101 0 100 0;
#X connect 102 0 99 0;
#X connect 103 0 100 0;
#X connect 104 0 85 0;
#X connect 105 0 31 0;
#X connect 106 0 149 0;
#X connect 109 0 5 0;
#X connect 110 0 24 0;
#X connect 111 0 51 0;
#X connect 112 0 136 0;
#X connect 115 0 81 0;
#X connect 115 0 110 0;
#X connect 115 0 111 0;
#X connect 115 0 133 0;
#X connect 117 0 112 0;
#X connect 118 0 120 0;
#X connect 119 0 121 0;
#X connect 120 0 119 0;
#X connect 121 0 117 0;
#X connect 123 0 118 0;
#X connect 124 0 147 0;
#X connect 125 0 147 1;
#X connect 127 0 140 0;
#X connect 128 0 145 0;
#X connect 129 0 145 1;
#X connect 131 0 132 0;
#X connect 132 0 128 0;
#X connect 132 0 124 0;
#X connect 133 0 124 0;
#X connect 133 0 128 0;
#X connect 133 1 129 0;
#X connect 133 1 125 0;
#X connect 133 1 141 0;
#X connect 134 0 132 0;
#X connect 134 0 138 0;
#X connect 135 0 139 0;
#X connect 136 0 0 0;
#X connect 136 0 106 0;
#X connect 137 0 136 1;
#X connect 138 0 137 0;
#X connect 139 0 131 0;
#X connect 140 0 123 0;
#X connect 141 0 137 0;
#X connect 145 0 135 0;
#X connect 145 1 134 0;
#X connect 147 0 127 0;
#X connect 148 0 3 0;
#X connect 149 0 3 0;
