#N canvas 1199 247 450 300 12;
#X obj 94 66 inlet;
#X floatatom 98 104 5 0 0 0 - - -;
#X obj 98 127 t b f;
#X msg 81 175 2;
#X obj 133 179 / 12;
#X obj 109 215 pow;
#X floatatom 107 248 5 0 0 0 - - -;
#X obj 107 271 outlet;
#X connect 0 0 1 0;
#X connect 1 0 2 0;
#X connect 2 0 3 0;
#X connect 2 1 4 0;
#X connect 3 0 5 0;
#X connect 4 0 5 1;
#X connect 5 0 6 0;
#X connect 6 0 7 0;
