#N canvas 937 298 598 510 12;
#X obj 59 291 osc~;
#X obj 116 290 osc~;
#X obj 177 290 osc~;
#X floatatom 130 103 5 0 0 0 - - -;
#X floatatom 164 103 5 0 0 0 - - -;
#X floatatom 199 103 5 0 0 0 - - -;
#X obj 77 158 *;
#X obj 111 157 *;
#X obj 142 156 *;
#X obj 57 322 *~;
#X obj 114 319 *~;
#X obj 177 318 *~;
#X obj 35 127 bng 15 250 50 0 empty empty empty 17 7 0 10 -262144 -1
-1;
#X msg 35 158 -0.25;
#X obj 130 44 inlet;
#X obj 35 43 inlet;
#X obj 54 348 outlet~;
#X obj 113 346 outlet~;
#X obj 176 343 outlet~;
#X obj 338 49 inlet;
#X floatatom 338 188 5 0 0 0 - - -;
#X floatatom 372 187 5 0 0 0 - - -;
#X floatatom 407 187 5 0 0 0 - - -;
#X obj 130 76 unpack 1 1 1 1 1;
#X obj 338 161 unpack 1 1 1 1 1;
#X floatatom 442 187 5 0 0 0 - - -;
#X floatatom 477 187 5 0 0 0 - - -;
#X floatatom 233 103 5 0 0 0 - - -;
#X floatatom 268 103 5 0 0 0 - - -;
#X obj 175 158 *;
#X obj 206 157 *;
#X obj 236 290 osc~;
#X obj 236 318 *~;
#X obj 235 343 outlet~;
#X obj 297 292 osc~;
#X obj 297 320 *~;
#X obj 296 345 outlet~;
#X connect 0 0 9 0;
#X connect 1 0 10 0;
#X connect 2 0 11 0;
#X connect 3 0 6 1;
#X connect 4 0 7 1;
#X connect 5 0 8 1;
#X connect 6 0 0 0;
#X connect 7 0 1 0;
#X connect 8 0 2 0;
#X connect 9 0 16 0;
#X connect 10 0 17 0;
#X connect 11 0 18 0;
#X connect 12 0 13 0;
#X connect 13 0 0 1;
#X connect 13 0 1 1;
#X connect 13 0 2 1;
#X connect 13 0 31 1;
#X connect 13 0 34 1;
#X connect 14 0 23 0;
#X connect 15 0 6 0;
#X connect 15 0 7 0;
#X connect 15 0 12 0;
#X connect 15 0 8 0;
#X connect 15 0 29 0;
#X connect 15 0 30 0;
#X connect 19 0 24 0;
#X connect 20 0 9 1;
#X connect 21 0 10 1;
#X connect 22 0 11 1;
#X connect 23 0 3 0;
#X connect 23 1 4 0;
#X connect 23 2 5 0;
#X connect 23 3 27 0;
#X connect 23 4 28 0;
#X connect 24 0 20 0;
#X connect 24 1 21 0;
#X connect 24 2 22 0;
#X connect 24 3 25 0;
#X connect 24 4 26 0;
#X connect 25 0 32 1;
#X connect 26 0 35 1;
#X connect 27 0 29 1;
#X connect 28 0 30 1;
#X connect 29 0 31 0;
#X connect 30 0 34 0;
#X connect 31 0 32 0;
#X connect 32 0 33 0;
#X connect 34 0 35 0;
#X connect 35 0 36 0;
