#N canvas 981 225 927 597 12;
#X obj 64 189 *;
#X obj 64 222 osc~;
#X obj 254 326 *~;
#X obj 110 189 *;
#X obj 110 222 osc~;
#X obj 300 326 *~;
#X obj 151 190 *;
#X obj 151 223 osc~;
#X obj 341 327 *~;
#X obj 297 106 unpack 1 1 1;
#X floatatom 297 139 5 0 0 0 - - -;
#X floatatom 351 140 5 0 0 0 - - -;
#X floatatom 407 141 5 0 0 0 - - -;
#X obj 103 119 bng 15 250 50 0 empty empty empty 17 7 0 10 -262144
-1 -1;
#X msg 103 145 -0.25;
#X obj 104 89 inlet;
#X obj 223 371 outlet~;
#X obj 315 52 inlet;
#X obj 291 370 outlet~;
#X obj 360 373 outlet~;
#X obj 483 108 unpack 1 1 1;
#X floatatom 483 141 5 0 0 0 - - -;
#X floatatom 537 142 5 0 0 0 - - -;
#X floatatom 593 143 5 0 0 0 - - -;
#X obj 501 54 inlet;
#X connect 0 0 1 0;
#X connect 1 0 2 0;
#X connect 2 0 16 0;
#X connect 3 0 4 0;
#X connect 4 0 5 0;
#X connect 5 0 18 0;
#X connect 6 0 7 0;
#X connect 7 0 8 0;
#X connect 8 0 19 0;
#X connect 9 0 10 0;
#X connect 9 1 11 0;
#X connect 9 2 12 0;
#X connect 10 0 0 1;
#X connect 11 0 3 1;
#X connect 12 0 6 1;
#X connect 13 0 14 0;
#X connect 14 0 1 1;
#X connect 14 0 4 1;
#X connect 14 0 7 1;
#X connect 15 0 13 0;
#X connect 17 0 9 0;
#X connect 20 0 21 0;
#X connect 20 1 22 0;
#X connect 20 2 23 0;
#X connect 21 0 2 1;
#X connect 22 0 5 1;
#X connect 23 0 8 1;
#X connect 24 0 20 0;
