#N canvas 0 0 275 151 10;
#X obj 99 65 random 100;
#X obj 99 86 moses 50;
#X msg 99 109 bang;
#X obj 1 28 sel 29 37 47 67 89 113 157 197;
#X obj 1 1 inlet numbers < 200;
#X obj 150 1 inlet probability;
#X obj 99 131 outlet bangs;
#X connect 0 0 1 0;
#X connect 1 0 2 0;
#X connect 2 0 6 0;
#X connect 3 0 0 0;
#X connect 3 1 0 0;
#X connect 3 2 0 0;
#X connect 3 3 0 0;
#X connect 3 4 0 0;
#X connect 3 5 0 0;
#X connect 3 6 0 0;
#X connect 3 7 0 0;
#X connect 4 0 3 0;
#X connect 5 0 1 1;
