#N canvas 129 108 125 138 10;
#X obj 1 1 tgl 15 0 empty empty empty 0 -6 0 8 -262144 -1 -1 1 1;
#X obj 2 101 dac~;
#X obj 1 23 cycleround 200;
#X obj 1 47 bubblepattern 50;
#X obj 1 71 bubblesound 600;
#X connect 0 0 2 0;
#X connect 2 0 3 0;
#X connect 3 0 4 0;
#X connect 4 0 1 0;
#X connect 4 0 1 1;
