#N canvas 316 38 1926 874 12;
#X obj 57 435 soundfiler;
#N canvas 0 50 450 250 (subpatch) 0;
#X array array3 135891 float 2;
#X coords 0 1 135891 -1 200 140 1 0 0;
#X restore 17 35 graph;
#X floatatom 57 471 5 0 0 0 - - -;
#X obj 58 673 tabread4~ array3;
#X obj 58 738 dac~;
#X msg 57 402 read -resize saxC4.wav array3;
#X floatatom 117 468 5 0 0 0 - - -;
#X obj 57 607 phasor~ 1;
#X obj 57 372 bng 15 250 50 0 empty empty empty 17 7 0 10 -262144 -1
-1;
#X obj 110 531 - 1;
#X obj 57 638 *~ 44099;
#X obj 59 704 *~;
#X obj 57 508 /;
#X obj 57 539 pow -1;
#X obj 57 575 * 1;
#X msg 136 562 0;
#X obj 205 672 line~;
#X floatatom 277 354 5 0 0 0 - - -;
#X obj 277 421 bng 15 250 50 0 empty empty empty 17 7 0 10 -262144
-1 -1;
#X floatatom 321 422 5 0 0 0 - - -;
#X msg 277 451 2;
#X obj 321 450 / 12;
#X obj 281 484 pow;
#X floatatom 281 517 5 0 0 0 - - -;
#X obj 368 448 float 0;
#X obj 434 469 + 1;
#X obj 368 421 bng 15 250 50 0 empty empty empty 17 7 0 10 -262144
-1 -1;
#X obj 268 273 tgl 15 0 empty empty empty 17 7 0 10 -262144 -1 -1 0
1;
#N canvas 0 50 450 250 (subpatch) 0;
#X array myFreq 12 float 3;
#A 0 2 5 9 12 11 11 -10 -7 -3 0 -1 -1;
#X coords 0 12 12 -12 200 140 1 0 0;
#X restore 829 31 graph;
#X obj 368 566 tabread myFreq;
#X floatatom 368 510 5 0 0 0 - - -;
#X floatatom 368 537 5 0 0 0 - - -;
#X msg 442 33 \; myFreq 0 1 2 3 4 5 6 7 8 9 10 11 12;
#X obj 368 479 mod 12;
#X obj 304 582 pow -1;
#X floatatom 305 619 5 0 0 0 - - -;
#X obj 277 385 t b f;
#X floatatom 306 554 5 0 0 0 - - -;
#X obj 305 650 * 1;
#X obj 304 679 * 1000;
#X obj 304 711 delay;
#X msg 200 561 1;
#X msg 241 561 0;
#X msg 205 644 \$1 50;
#X obj 205 614 * 0.1;
#X obj 205 590 tgl 15 0 empty empty empty 17 7 0 10 -262144 -1 -1 0
1;
#X msg 258 643 0 50;
#X obj 369 598 route 0 1;
#X floatatom 108 276 5 0 0 0 - - -;
#X text 154 273 single note;
#X text 704 39 chromatic scale;
#X text 721 106 my melody, f 11;
#X obj 369 386 metro 500;
#X msg 234 352 0;
#X msg 434 436 -1;
#X msg 239 31 \; myFreq resize 12 \; myFreq bounds 0 12 12 -12 \; myFreq
xlabel \; myFreq ylabel \;;
#X msg 245 130 \; myFreq 0 -12 -11 -10 -9 -8 -7 -6 -5 -4 -3 -2 -1;
#X text 599 139 chromatic scale version 2;
#X obj 646 420 soundfiler;
#X floatatom 646 456 5 0 0 0 - - -;
#X obj 647 658 tabread4~ array3;
#X obj 644 725 dac~;
#X msg 646 387 read -resize saxC4.wav array3;
#X floatatom 706 453 5 0 0 0 - - -;
#X obj 646 592 phasor~ 1;
#X obj 644 363 bng 15 250 50 0 empty empty empty 17 7 0 10 -262144
-1 -1;
#X obj 699 516 - 1;
#X obj 646 623 *~ 44099;
#X obj 645 691 *~;
#X obj 646 493 /;
#X obj 646 524 pow -1;
#X obj 646 560 * 1;
#X msg 725 547 0;
#X obj 773 658 line~;
#X floatatom 864 357 5 0 0 0 - - -;
#X obj 864 418 bng 15 250 50 0 empty empty empty 17 7 0 10 -262144
-1 -1;
#X floatatom 908 419 5 0 0 0 - - -;
#X msg 864 448 2;
#X obj 908 447 / 12;
#X obj 864 474 pow;
#X floatatom 864 499 5 0 0 0 - - -;
#X obj 932 523 bng 15 250 50 0 empty empty empty 17 7 0 10 -262144
-1 -1;
#X obj 869 286 tgl 15 0 empty empty empty 17 7 0 10 -262144 -1 -1 0
1;
#X obj 930 649 tabread myFreq;
#X obj 866 558 pow -1;
#X floatatom 866 587 5 0 0 0 - - -;
#X obj 864 388 t b f;
#X floatatom 866 535 5 0 0 0 - - -;
#X obj 867 615 * 1;
#X obj 866 642 * 1000;
#X obj 866 667 delay;
#X msg 772 548 1;
#X msg 810 548 0;
#X msg 773 627 \$1 50;
#X obj 774 602 * 0.1;
#X obj 774 578 tgl 15 0 empty empty empty 17 7 0 10 -262144 -1 -1 1
1;
#X msg 822 627 0 50;
#X obj 933 677 route 0 1;
#X floatatom 693 282 5 0 0 0 - - -;
#X text 746 282 single note;
#X obj 934 485 metro 500;
#X msg 825 357 0;
#X msg 991 512 -1;
#X obj 931 597 moses 12;
#X floatatom 931 622 5 0 0 0 - - -;
#X floatatom 975 622 5 0 0 0 - - -;
#X floatatom 931 574 5 0 0 0 - - -;
#X obj 993 546 + 1;
#X obj 931 546 float 0;
#X text 293 273 play a scale of your choice repeat.;
#X text 907 282 play a scale \, and stop.;
#X text 67 226 Version 1 with repeat.;
#X text 639 218 Version 1 with stop using moses;
#X msg 440 72 \; myFreq 0 2 5 9 12 11 11 -10 -7 -3 0 -1 -1;
#X connect 0 0 2 0;
#X connect 0 1 6 0;
#X connect 2 0 12 0;
#X connect 3 0 11 0;
#X connect 5 0 0 0;
#X connect 6 0 9 1;
#X connect 6 0 12 1;
#X connect 7 0 10 0;
#X connect 8 0 5 0;
#X connect 8 0 15 0;
#X connect 8 0 41 0;
#X connect 9 0 10 1;
#X connect 10 0 3 0;
#X connect 11 0 4 0;
#X connect 11 0 4 1;
#X connect 12 0 13 0;
#X connect 12 0 38 1;
#X connect 13 0 14 0;
#X connect 14 0 7 0;
#X connect 15 0 7 1;
#X connect 16 0 11 1;
#X connect 17 0 36 0;
#X connect 18 0 20 0;
#X connect 19 0 21 0;
#X connect 20 0 22 0;
#X connect 21 0 22 1;
#X connect 22 0 23 0;
#X connect 23 0 14 1;
#X connect 23 0 8 0;
#X connect 23 0 37 0;
#X connect 24 0 33 0;
#X connect 25 0 24 1;
#X connect 26 0 24 0;
#X connect 27 0 54 0;
#X connect 27 0 53 0;
#X connect 27 0 47 0;
#X connect 27 0 52 0;
#X connect 29 0 17 0;
#X connect 30 0 31 0;
#X connect 30 0 25 0;
#X connect 31 0 29 0;
#X connect 33 0 30 0;
#X connect 34 0 35 0;
#X connect 35 0 38 0;
#X connect 36 0 18 0;
#X connect 36 1 19 0;
#X connect 37 0 34 0;
#X connect 38 0 39 0;
#X connect 39 0 40 0;
#X connect 40 0 42 0;
#X connect 41 0 45 0;
#X connect 42 0 45 0;
#X connect 43 0 16 0;
#X connect 44 0 43 0;
#X connect 45 0 44 0;
#X connect 46 0 16 0;
#X connect 47 0 46 0;
#X connect 48 0 17 0;
#X connect 52 0 26 0;
#X connect 53 0 17 0;
#X connect 54 0 30 0;
#X connect 58 0 59 0;
#X connect 58 1 63 0;
#X connect 59 0 69 0;
#X connect 60 0 68 0;
#X connect 62 0 58 0;
#X connect 63 0 66 1;
#X connect 63 0 69 1;
#X connect 64 0 67 0;
#X connect 65 0 62 0;
#X connect 65 0 72 0;
#X connect 65 0 91 0;
#X connect 66 0 67 1;
#X connect 67 0 60 0;
#X connect 68 0 61 0;
#X connect 68 0 61 1;
#X connect 69 0 70 0;
#X connect 69 0 88 1;
#X connect 70 0 71 0;
#X connect 71 0 64 0;
#X connect 72 0 64 1;
#X connect 73 0 68 1;
#X connect 74 0 86 0;
#X connect 75 0 77 0;
#X connect 76 0 78 0;
#X connect 77 0 79 0;
#X connect 78 0 79 1;
#X connect 79 0 80 0;
#X connect 80 0 71 1;
#X connect 80 0 65 0;
#X connect 80 0 87 0;
#X connect 81 0 108 0;
#X connect 82 0 102 0;
#X connect 82 0 101 0;
#X connect 82 0 97 0;
#X connect 82 0 100 0;
#X connect 83 0 74 0;
#X connect 84 0 85 0;
#X connect 85 0 88 0;
#X connect 86 0 75 0;
#X connect 86 1 76 0;
#X connect 87 0 84 0;
#X connect 88 0 89 0;
#X connect 89 0 90 0;
#X connect 90 0 92 0;
#X connect 91 0 95 0;
#X connect 92 0 95 0;
#X connect 93 0 73 0;
#X connect 94 0 93 0;
#X connect 95 0 94 0;
#X connect 96 0 73 0;
#X connect 97 0 96 0;
#X connect 98 0 74 0;
#X connect 100 0 81 0;
#X connect 101 0 74 0;
#X connect 102 0 106 0;
#X connect 103 0 104 0;
#X connect 103 1 105 0;
#X connect 104 0 83 0;
#X connect 105 0 96 0;
#X connect 106 0 107 0;
#X connect 106 0 103 0;
#X connect 107 0 108 1;
#X connect 108 0 106 0;
