#N canvas 1006 297 284 371 10;
#X obj 47 268 myFMSynth;
#X floatatom 47 191 5 0 0 0 - - -;
#X floatatom 100 192 5 0 0 0 - - -;
#X floatatom 149 192 5 0 0 0 - - -;
#X text 134 192 I;
#X obj 149 220 bng 15 250 50 0 empty empty empty 17 7 0 10 -262144
-1 -1;
#X text 82 192 fm;
#X text 24 192 fc;
#X obj 39 36 inlet;
#X obj 47 299 outlet~;
#X text 41 16 f0;
#X text 178 168 2 - 4;
#X obj 180 53 / 20;
#X obj 148 241 myASR 1 10 150;
#X msg 149 168 1;
#X connect 0 0 9 0;
#X connect 1 0 5 0;
#X connect 1 0 0 0;
#X connect 2 0 5 0;
#X connect 2 0 0 1;
#X connect 3 0 5 0;
#X connect 3 0 0 2;
#X connect 5 0 13 0;
#X connect 8 0 14 0;
#X connect 8 0 1 0;
#X connect 8 0 12 0;
#X connect 8 0 2 0;
#X connect 13 0 0 3;
#X connect 14 0 3 0;
