#N canvas 238 101 275 403 10;
#X obj 39 40 inlet;
#X obj 78 39 inlet;
#X obj 117 39 inlet;
#X obj 198 39 inlet~;
#X text 41 22 fc;
#X text 87 22 fm;
#X text 124 20 I;
#X obj 77 297 osc~;
#X obj 77 269 +~;
#X floatatom 39 235 5 0 0 0 - - -;
#X text 15 234 fc;
#X obj 77 158 osc~;
#X floatatom 78 103 5 0 0 0 - - -;
#X floatatom 110 159 5 0 0 0 - - -;
#X text 143 162 d;
#X obj 77 185 *~;
#X obj 110 126 *;
#X floatatom 139 68 5 0 0 0 - - -;
#X text 113 102 fm;
#X obj 77 213 *~;
#X obj 77 325 *~;
#X obj 77 353 outlet~;
#X text 203 21 env;
#X obj 117 68 bng 15 250 50 0 empty empty empty 17 7 0 10 -262144 -1
-1;
#X connect 0 0 9 0;
#X connect 1 0 12 0;
#X connect 2 0 17 0;
#X connect 2 0 23 0;
#X connect 3 0 20 1;
#X connect 3 0 19 1;
#X connect 7 0 20 0;
#X connect 8 0 7 0;
#X connect 9 0 8 1;
#X connect 11 0 15 0;
#X connect 12 0 11 0;
#X connect 12 0 16 0;
#X connect 13 0 15 1;
#X connect 15 0 19 0;
#X connect 16 0 13 0;
#X connect 17 0 16 1;
#X connect 19 0 8 0;
#X connect 20 0 21 0;
#X connect 23 0 12 0;
