#N canvas 451 268 241 341 10;
#X obj 153 190 myT60;
#X floatatom 153 165 5 0 0 0 - - -;
#X obj 33 233 myFMSynth;
#X floatatom 33 84 5 0 0 0 - - -;
#X floatatom 69 83 5 0 0 0 - - -;
#X floatatom 105 83 5 0 0 0 - - -;
#X text 107 69 I;
#X obj 153 119 bng 15 250 50 0 empty empty empty 17 7 0 10 -262144
-1 -1;
#X text 68 67 fm;
#X text 33 70 fc;
#X obj 33 20 inlet;
#X obj 33 47 unpack 1 1 1 1;
#X obj 153 141 float 0;
#X obj 33 276 outlet~;
#X connect 0 0 2 3;
#X connect 1 0 0 0;
#X connect 2 0 13 0;
#X connect 3 0 7 0;
#X connect 3 0 2 0;
#X connect 4 0 7 0;
#X connect 4 0 2 1;
#X connect 5 0 7 0;
#X connect 5 0 2 2;
#X connect 7 0 12 0;
#X connect 10 0 11 0;
#X connect 11 0 3 0;
#X connect 11 1 4 0;
#X connect 11 2 5 0;
#X connect 11 3 12 1;
#X connect 12 0 1 0;
