#N canvas 142 246 249 266 10;
#X obj 37 202 myFMSynth;
#X floatatom 37 107 5 0 0 0 - - -;
#X floatatom 76 108 5 0 0 0 - - -;
#X floatatom 116 108 5 0 0 0 - - -;
#X text 120 93 I;
#X obj 116 143 bng 15 250 50 0 empty empty empty 17 7 0 10 -262144
-1 -1;
#X text 79 93 fm;
#X text 39 94 fc;
#X obj 37 30 inlet;
#X obj 37 234 outlet~;
#X text 39 10 f0;
#X obj 37 74 * 3;
#X obj 76 74 * 2;
#X msg 115 75 2;
#X text 144 75 2 - 4;
#X obj 116 171 myASR 70 200 70;
#X connect 0 0 9 0;
#X connect 1 0 5 0;
#X connect 1 0 0 0;
#X connect 2 0 5 0;
#X connect 2 0 0 1;
#X connect 3 0 5 0;
#X connect 3 0 0 2;
#X connect 5 0 15 0;
#X connect 8 0 11 0;
#X connect 8 0 12 0;
#X connect 8 0 13 0;
#X connect 11 0 1 0;
#X connect 12 0 2 0;
#X connect 13 0 3 0;
#X connect 15 0 0 3;
