#N canvas 1498 232 581 539 12;
#X obj 63 128 random 6;
#X obj 63 189 route 0 1 2 3 4 5;
#X obj 59 224 bng 15 250 50 0 empty empty empty 17 7 0 10 -262144 -1
-1;
#X obj 58 269 tabread chord1;
#X floatatom 58 246 5 0 0 0 - - -;
#X obj 65 79 bng 15 250 50 0 empty empty empty 17 7 0 10 -262144 -1
-1;
#X floatatom 63 372 5 0 0 0 - - -;
#X obj 60 294 bng 15 250 50 0 empty empty empty 17 7 0 10 -262144 -1
-1;
#X obj 59 339 tabread chord1;
#X floatatom 59 316 5 0 0 0 - - -;
#X floatatom 107 374 5 0 0 0 - - -;
#X obj 180 224 bng 15 250 50 0 empty empty empty 17 7 0 10 -262144
-1 -1;
#X obj 179 269 tabread chord1;
#X floatatom 179 246 5 0 0 0 - - -;
#X floatatom 151 374 5 0 0 0 - - -;
#X obj 184 295 bng 15 250 50 0 empty empty empty 17 7 0 10 -262144
-1 -1;
#X obj 183 340 tabread chord1;
#X floatatom 183 317 5 0 0 0 - - -;
#X floatatom 195 375 5 0 0 0 - - -;
#X floatatom 63 155 5 0 0 0 - - -;
#X msg 198 109 0;
#X msg 198 172 3;
#X msg 198 151 2;
#X msg 198 130 1;
#X obj 65 46 inlet;
#X obj 62 405 outlet;
#X obj 129 405 outlet;
#X obj 203 405 outlet;
#X obj 274 405 outlet;
#X text 138 42 // random chord choose form 0-5 \, for major V;
#X obj 343 147 bng 15 250 50 0 empty empty empty 17 7 0 10 -262144
-1 -1;
#N canvas 0 50 450 250 (subpatch) 0;
#X array chord0V 4 float 3;
#A 0 -5 2 11 19;
#X coords 0 36 4 -5 50 50 1 0 0;
#X restore 57 445 graph;
#N canvas 0 50 450 250 (subpatch) 0;
#X array chord1V 4 float 3;
#A 0 -5 2 7 11;
#X coords 0 36 4 -5 50 50 1 0 0;
#X restore 113 444 graph;
#N canvas 0 50 450 250 (subpatch) 0;
#X array chord2V 4 float 3;
#A 0 -5 7 11 14;
#X coords 0 36 4 -5 50 50 1 0 0;
#X restore 168 444 graph;
#N canvas 0 50 450 250 (subpatch) 0;
#X array chord3V 4 float 3;
#A 0 -5 7 14 23;
#X coords 0 36 4 -5 50 50 1 0 0;
#X restore 225 445 graph;
#N canvas 0 50 450 250 (subpatch) 0;
#X array chord4V 4 float 3;
#A 0 -5 11 14 19;
#X coords 0 36 4 -5 50 50 1 0 0;
#X restore 282 446 graph;
#N canvas 0 50 450 250 (subpatch) 0;
#X array chord5V 4 float 3;
#A 0 -5 11 19 26;
#X coords 0 36 4 -5 50 50 1 0 0;
#X restore 339 446 graph;
#X msg 344 170 \; chord0V 0 -5 2 11 19;
#X msg 344 205 \; chord1V 0 -5 2 7 11;
#X msg 344 240 \; chord2V 0 -5 7 11 14;
#X msg 345 275 \; chord3V 0 -5 7 14 23;
#X msg 344 310 \; chord4V 0 -5 11 14 19;
#X msg 344 345 \; chord5V 0 -5 11 19 26;
#X msg 246 128 set chord0V;
#X msg 247 149 set chord1V;
#X msg 246 170 set chord2V;
#X msg 246 191 set chord3V;
#X msg 246 212 set chord4V;
#X msg 247 233 set chord5V;
#X connect 0 0 19 0;
#X connect 1 0 43 0;
#X connect 1 0 2 0;
#X connect 1 0 7 0;
#X connect 1 0 11 0;
#X connect 1 0 15 0;
#X connect 1 1 2 0;
#X connect 1 1 7 0;
#X connect 1 1 11 0;
#X connect 1 1 15 0;
#X connect 1 1 44 0;
#X connect 1 2 2 0;
#X connect 1 2 7 0;
#X connect 1 2 11 0;
#X connect 1 2 15 0;
#X connect 1 2 45 0;
#X connect 1 3 2 0;
#X connect 1 3 7 0;
#X connect 1 3 11 0;
#X connect 1 3 15 0;
#X connect 1 3 46 0;
#X connect 1 4 2 0;
#X connect 1 4 7 0;
#X connect 1 4 11 0;
#X connect 1 4 15 0;
#X connect 1 4 47 0;
#X connect 1 5 2 0;
#X connect 1 5 7 0;
#X connect 1 5 11 0;
#X connect 1 5 15 0;
#X connect 1 5 48 0;
#X connect 1 6 2 0;
#X connect 1 6 7 0;
#X connect 1 6 15 0;
#X connect 2 0 4 0;
#X connect 3 0 6 0;
#X connect 4 0 3 0;
#X connect 5 0 0 0;
#X connect 5 0 20 0;
#X connect 5 0 23 0;
#X connect 5 0 22 0;
#X connect 5 0 21 0;
#X connect 6 0 25 0;
#X connect 7 0 9 0;
#X connect 8 0 10 0;
#X connect 9 0 8 0;
#X connect 10 0 26 0;
#X connect 11 0 13 0;
#X connect 12 0 14 0;
#X connect 13 0 12 0;
#X connect 14 0 27 0;
#X connect 15 0 17 0;
#X connect 16 0 18 0;
#X connect 17 0 16 0;
#X connect 18 0 28 0;
#X connect 19 0 1 0;
#X connect 20 0 4 0;
#X connect 21 0 17 0;
#X connect 22 0 13 0;
#X connect 23 0 9 0;
#X connect 24 0 5 0;
#X connect 30 0 37 0;
#X connect 30 0 38 0;
#X connect 30 0 39 0;
#X connect 30 0 40 0;
#X connect 30 0 41 0;
#X connect 30 0 42 0;
#X connect 43 0 3 0;
#X connect 43 0 8 0;
#X connect 43 0 12 0;
#X connect 43 0 16 0;
#X connect 44 0 8 0;
#X connect 44 0 3 0;
#X connect 44 0 12 0;
#X connect 44 0 16 0;
#X connect 45 0 3 0;
#X connect 45 0 8 0;
#X connect 45 0 12 0;
#X connect 45 0 16 0;
#X connect 46 0 3 0;
#X connect 46 0 8 0;
#X connect 46 0 12 0;
#X connect 46 0 16 0;
#X connect 47 0 3 0;
#X connect 47 0 8 0;
#X connect 47 0 12 0;
#X connect 47 0 16 0;
#X connect 48 0 16 0;
#X connect 48 0 12 0;
#X connect 48 0 8 0;
#X connect 48 0 3 0;
