#N canvas 1016 13 1406 997 12;
#X text 576 73 possible progression: I ii IV V V V7 V64 I I vi I6 IV
I64 V I I6 V64 I IV6 V I6 V I IV6 I6 IV I64 V7 vi I6 V43 I I6 ii65
V I I IV64 I vi ii6 V7 I iv6 i64 iv iio6 i64 V7 i IV IV V I6 ii V65
I IV6 I V65 I ii65 V7 I;
#X text 578 136 T-D-T-T-T-D-T T-D-T-S-D-T-D T-S-T-S-T-D-T T-D-T-T-S-D-T
T-S-T-T-S-D-T T-T-S-S-T-D-T S-S-D-T-S-D-T S-T-D-T-S-D-T;
#X text 575 181 T-D-T-T-T-D-T T-D-T-S-D-T-D T-S-T-S-T-D-T T-D-T-T-S-D-T
T-S-T-T-S-D-T;
#X text 46 30 myChordProgressions;
#X text 146 320 current state;
#X obj 265 288 route 0 1 2;
#X obj 217 169 bng 15 250 50 0 empty empty empty 17 7 0 10 -262144
-1 -1;
#X obj 102 294 expr currentState;
#X floatatom 102 318 5 0 0 0 - - -;
#X obj 265 262 expr currentState;
#X obj 279 413 v currentState;
#X msg 425 164 0;
#X obj 62 355 random 3;
#X obj 64 444 route 0 1 2;
#X obj 64 310 bng 15 250 50 0 empty empty empty 17 7 0 10 -262144 -1
-1;
#X obj 63 516 route 0 1 2;
#X obj 67 481 random 4;
#X obj 211 515 CHORDforI;
#X floatatom 181 574 5 0 0 0 - - -;
#X floatatom 255 577 5 0 0 0 - - -;
#X floatatom 319 577 5 0 0 0 - - -;
#X floatatom 392 577 5 0 0 0 - - -;
#X obj 292 516 CHORDforV;
#X obj 386 516 CHORDforIV;
#X floatatom 64 399 5 0 0 0 - - -;
#X obj 190 729 myFMClarinet;
#X obj 192 675 mtof;
#X obj 172 827 output;
#X floatatom 190 701 5 0 0 0 - - -;
#X obj 289 700 line~;
#X msg 295 671 0 20;
#X obj 190 753 *~;
#X msg 285 647 1 20;
#X obj 75 719 myFMClarinet;
#X obj 76 670 mtof;
#X floatatom 76 696 5 0 0 0 - - -;
#X obj 129 690 line~;
#X msg 135 661 0 20;
#X obj 75 743 *~;
#X msg 125 637 1 20;
#X obj 351 727 myFMClarinet;
#X obj 351 674 mtof;
#X floatatom 351 700 5 0 0 0 - - -;
#X obj 442 700 line~;
#X msg 448 671 0 20;
#X obj 351 751 *~;
#X msg 438 647 1 20;
#X obj 493 730 myFMClarinet;
#X obj 493 675 mtof;
#X floatatom 493 701 5 0 0 0 - - -;
#X obj 554 702 line~;
#X msg 560 673 0 20;
#X obj 493 754 *~;
#X msg 550 649 1 20;
#X obj 102 270 metro 900;
#X obj 109 563 bng 15 250 50 0 empty empty empty 17 7 0 10 -262144
-1 -1;
#X obj 76 647 + 48;
#X obj 192 652 + 48;
#X obj 351 651 + 48;
#X obj 492 651 + 48;
#X text 194 459 if input == 0 \, then choose from I if input == 1 \,
then choose from V if input == 2 \, then choose from IV, f 38;
#X text 576 43 progression analysis:;
#X text 586 249 what's next: if input == 0 \, then choose from I \,
III \, or VI \, with majority of I if input == 1 \, then choose from
III \, V \, or VII \, with majority of V if input == 2 \, then choose
from II \, IV \, or VI, f 70;
#X msg 457 383 0;
#X msg 501 384 1;
#X obj 459 358 route 0;
#X text 44 73 // Chord Progression Chooser T = 0 \; D = 1 \; S = 2
this = T (0) \, next = D or S or T this = D (1) \, next = T this =
S (2) \, next = D or T;
#X obj 465 325 random 2;
#X msg 359 383 0;
#X obj 361 358 route 0;
#X obj 367 325 random 2;
#X msg 403 384 0;
#X msg 230 377 0;
#X obj 266 322 random 3;
#X obj 225 349 route 0 1 2;
#X msg 267 375 1;
#X msg 309 373 2;
#X obj 265 237 metro 900;
#N canvas 0 50 450 250 (subpatch) 0;
#X array SampleProgression 7 float 3;
#A 0 0 1 0 0 2 1 0;
#X coords 0 2 7 -1 200 140 1 0 0;
#X restore 886 365 graph;
#X obj 77 167 bng 15 250 50 0 empty empty empty 17 7 0 10 -262144 -1
-1;
#X floatatom 673 521 5 0 0 0 - - -;
#X obj 674 494 tabread SampleProgression;
#X obj 675 411 metro 900;
#X obj 675 437 myCounter 7;
#X floatatom 675 464 5 0 0 0 - - -;
#X obj 750 410 bng 15 250 50 0 empty empty empty 17 7 0 10 -262144
-1 -1;
#X obj 767 439 bng 15 250 50 0 empty empty empty 17 7 0 10 -262144
-1 -1;
#X obj 729 467 bng 15 250 50 0 empty empty empty 17 7 0 10 -262144
-1 -1;
#X msg 794 439 900;
#X msg 785 406 0;
#X msg 885 510 \; SampleProgression 0 0 1 0 0 2 1 0;
#X text 117 165 Sample Start;
#X text 466 165 Stop;
#X text 245 167 Random Start (nonstop);
#X connect 5 0 73 0;
#X connect 5 1 70 0;
#X connect 5 2 67 0;
#X connect 6 0 54 0;
#X connect 6 0 77 0;
#X connect 7 0 8 0;
#X connect 8 0 24 0;
#X connect 9 0 5 0;
#X connect 11 0 54 0;
#X connect 11 0 37 0;
#X connect 11 0 30 0;
#X connect 11 0 44 0;
#X connect 11 0 51 0;
#X connect 11 0 77 0;
#X connect 12 0 24 0;
#X connect 13 0 17 0;
#X connect 13 1 22 0;
#X connect 13 2 23 0;
#X connect 14 0 12 0;
#X connect 16 0 15 0;
#X connect 17 0 18 0;
#X connect 17 1 19 0;
#X connect 17 2 20 0;
#X connect 17 3 21 0;
#X connect 18 0 56 0;
#X connect 19 0 57 0;
#X connect 20 0 58 0;
#X connect 21 0 59 0;
#X connect 22 0 18 0;
#X connect 22 1 19 0;
#X connect 22 2 20 0;
#X connect 22 3 21 0;
#X connect 23 0 18 0;
#X connect 23 1 19 0;
#X connect 23 2 20 0;
#X connect 23 3 21 0;
#X connect 24 0 13 0;
#X connect 24 0 55 0;
#X connect 25 0 31 0;
#X connect 26 0 28 0;
#X connect 28 0 25 0;
#X connect 29 0 31 1;
#X connect 30 0 29 0;
#X connect 31 0 27 1;
#X connect 32 0 29 0;
#X connect 33 0 38 0;
#X connect 34 0 35 0;
#X connect 35 0 33 0;
#X connect 36 0 38 1;
#X connect 37 0 36 0;
#X connect 38 0 27 1;
#X connect 39 0 36 0;
#X connect 40 0 45 0;
#X connect 41 0 42 0;
#X connect 42 0 40 0;
#X connect 43 0 45 1;
#X connect 44 0 43 0;
#X connect 45 0 27 1;
#X connect 46 0 43 0;
#X connect 47 0 52 0;
#X connect 48 0 49 0;
#X connect 49 0 47 0;
#X connect 50 0 52 1;
#X connect 51 0 50 0;
#X connect 52 0 27 1;
#X connect 53 0 50 0;
#X connect 54 0 7 0;
#X connect 55 0 39 0;
#X connect 55 0 32 0;
#X connect 55 0 46 0;
#X connect 55 0 53 0;
#X connect 56 0 34 0;
#X connect 57 0 26 0;
#X connect 58 0 41 0;
#X connect 59 0 48 0;
#X connect 63 0 10 0;
#X connect 64 0 10 0;
#X connect 65 0 63 0;
#X connect 65 1 64 0;
#X connect 67 0 65 0;
#X connect 68 0 10 0;
#X connect 69 0 68 0;
#X connect 69 1 71 0;
#X connect 70 0 69 0;
#X connect 71 0 10 0;
#X connect 72 0 10 0;
#X connect 73 0 74 0;
#X connect 74 0 72 0;
#X connect 74 1 75 0;
#X connect 74 2 76 0;
#X connect 75 0 10 0;
#X connect 76 0 10 0;
#X connect 77 0 9 0;
#X connect 79 0 82 0;
#X connect 80 0 24 0;
#X connect 81 0 80 0;
#X connect 82 0 83 0;
#X connect 83 0 84 0;
#X connect 83 1 87 0;
#X connect 84 0 81 0;
#X connect 85 0 86 0;
#X connect 85 0 51 0;
#X connect 85 0 44 0;
#X connect 85 0 30 0;
#X connect 85 0 37 0;
#X connect 85 0 89 0;
#X connect 86 0 83 1;
#X connect 87 0 51 0;
#X connect 87 0 44 0;
#X connect 87 0 30 0;
#X connect 87 0 37 0;
#X connect 87 0 85 0;
#X connect 88 0 82 1;
#X connect 89 0 82 0;
