#N canvas 657 307 209 339 10;
#X obj 56 22 inlet;
#X obj 56 282 outlet~;
#X obj 56 52 pack \$1 \$2 \$3;
#X obj 56 80 unpack f f f;
#X text 97 96 S;
#X text 46 98 A;
#X text 132 96 R;
#X msg 56 212 1 \$1;
#X obj 83 157 delay;
#X msg 99 212 0 \$1;
#X obj 83 131 +;
#X obj 98 185 float;
#X text 131 213 off;
#X text 33 212 on;
#X obj 56 247 line~;
#X connect 0 0 2 0;
#X connect 2 0 3 0;
#X connect 3 0 7 0;
#X connect 3 0 10 0;
#X connect 3 1 10 1;
#X connect 3 2 11 1;
#X connect 7 0 14 0;
#X connect 8 0 11 0;
#X connect 9 0 14 0;
#X connect 10 0 8 0;
#X connect 11 0 9 0;
#X connect 14 0 1 0;
