#N canvas 152 429 313 288 10;
#X obj 71 116 float 0;
#X msg 142 85 0;
#X text 179 36 reset;
#X obj 110 85 + 1;
#X floatatom 71 177 5 0 0 0 - - -;
#X obj 71 86 bng 15 250 50 0 empty empty empty 17 7 0 10 -262144 -1
-1;
#X obj 71 145 mod \$1;
#X obj 71 35 inlet;
#X obj 142 36 inlet;
#X obj 71 206 outlet;
#X obj 132 203 outlet;
#X text 138 185 send bang when complete;
#X obj 132 145 select \$1;
#X connect 0 0 6 0;
#X connect 0 0 12 0;
#X connect 1 0 0 1;
#X connect 3 0 0 1;
#X connect 4 0 3 0;
#X connect 4 0 9 0;
#X connect 5 0 0 0;
#X connect 6 0 4 0;
#X connect 7 0 5 0;
#X connect 8 0 1 0;
#X connect 12 0 10 0;
