#N canvas 63 135 265 388 10;
#X obj 40 30 inlet;
#X text 43 12 T60;
#X obj 182 153 log;
#X msg 182 127 0.001;
#X floatatom 182 183 5 0 0 0 - - -;
#X obj 149 203 /;
#X floatatom 148 233 5 0 0 0 - - -;
#X obj 182 103 bng 15 250 50 0 empty empty empty 17 7 0 10 -262144
-1 -1;
#X obj 149 73 t f b;
#X obj 149 102 * -1;
#X text 185 233 tau;
#X obj 40 314 outlet~;
#X obj 40 131 pack;
#X obj 71 103 * 1000;
#X obj 40 102 * -1;
#X msg 116 104 0;
#X obj 40 72 t f f b;
#X obj 40 165 line~;
#X text 77 164 t;
#X obj 40 262 /~;
#X obj 40 288 exp~;
#X connect 0 0 8 0;
#X connect 0 0 16 0;
#X connect 2 0 4 0;
#X connect 3 0 2 0;
#X connect 4 0 5 1;
#X connect 5 0 6 0;
#X connect 6 0 19 1;
#X connect 7 0 3 0;
#X connect 8 0 9 0;
#X connect 8 1 7 0;
#X connect 9 0 5 0;
#X connect 12 0 17 0;
#X connect 13 0 12 1;
#X connect 14 0 12 0;
#X connect 15 0 17 0;
#X connect 16 0 14 0;
#X connect 16 1 13 0;
#X connect 16 2 15 0;
#X connect 17 0 19 0;
#X connect 19 0 20 0;
#X connect 20 0 11 0;
