#N struct line-label float x float y float z symbol label;
#N canvas 1550 0 953 1028 12;
#X obj 61 184 sinusoid;
#A saved 0;
#X obj 65 118 hsl 100 15 50 1500 0 0 empty empty Freq -2 -8 0 10 -204800
-1 -1 3600 1;
#X floatatom 63 150 5 0 0 0 - - -;
#X obj 128 284 *~;
#X obj 91 477 output;
#X obj 181 186 sinusoid;
#A saved 0;
#X obj 185 120 hsl 100 15 50 1500 0 0 empty empty Freq -2 -8 0 10 -204800
-1 -1 2300 1;
#X floatatom 183 151 5 0 0 0 - - -;
#X obj 130 321 *~;
#X obj 298 195 sinusoid;
#A saved 0;
#X obj 302 129 hsl 100 15 50 1500 0 0 empty empty Freq -2 -8 0 10 -204800
-1 -1 900 1;
#X floatatom 300 161 5 0 0 0 - - -;
#X floatatom 172 324 5 0 0 0 - - -;
#X obj 130 353 *~;
#X obj 281 457 record;
#X obj 65 663 spectrum;
#X obj 311 295 adsr;
#A saved 0.01 0.5 30 1;
#X obj 419 213 sinusoid;
#A saved 0.5;
#X obj 164 422 *~;
#X connect 0 0 3 0;
#X connect 1 0 2 0;
#X connect 2 0 0 0;
#X connect 3 0 8 0;
#X connect 5 0 3 1;
#X connect 6 0 7 0;
#X connect 7 0 5 0;
#X connect 8 0 13 0;
#X connect 9 0 8 1;
#X connect 10 0 11 0;
#X connect 11 0 9 0;
#X connect 12 0 13 1;
#X connect 13 0 18 0;
#X connect 16 0 18 1;
#X connect 17 0 16 0;
#X connect 18 0 4 1;
#X connect 18 0 15 0;
#X connect 18 0 14 0;
