#N canvas 704 12 1548 1028 12;
#X obj 56 151 t b b;
#X obj 61 272 vline~;
#X msg 68 228 0 0 0 \, 1 100 0;
#X obj 42 318 sig~ 2.71828;
#X obj 61 358 pow~;
#X obj 68 432 phasor~;
#X obj 65 456 cos~;
#X obj 67 495 multiply;
#X obj 73 550 multiply;
#X obj 72 623 highpass;
#A saved 4000;
#X obj 45 783 output;
#X obj 62 389 multiply;
#X obj 161 305 constant;
#A saved 1 100;
#X obj 207 536 constant;
#A saved 1 1;
#X obj 69 110 bng 15 250 50 0 empty empty empty 17 7 0 10 -262144 -1
-1;
#X obj 232 738 meter;
#X obj 357 316 adsr;
#A saved 0.04 0.04 5 0.05;
#X obj 352 210 sinusoid;
#A saved 0;
#X obj 676 105 t b b;
#X obj 678 164 vline~;
#X msg 678 135 0 0 0 \, 1 100 0;
#X obj 653 206 sig~ 2.71828;
#X obj 653 236 pow~;
#X obj 652 301 phasor~;
#X obj 652 327 cos~;
#X obj 650 358 multiply;
#X obj 650 395 multiply;
#X obj 650 437 highpass;
#A saved 4000;
#X obj 653 499 output;
#X obj 653 263 multiply;
#X obj 758 217 constant;
#A saved 1 200;
#X obj 757 362 constant;
#A saved 1 15;
#X obj 783 491 meter;
#X obj 759 277 del 3;
#X obj 757 331 vline~;
#X msg 758 304 0 0 0 \, 1 10 0 \, 0 80 10;
#X obj 651 629 record;
#X msg 683 29 1;
#X msg 741 24 0;
#X obj 677 85 bng 15 250 50 0 empty empty empty 17 7 0 10 -262144 -1
-1;
#X obj 678 59 metro 500;
#X connect 0 0 2 0;
#X connect 1 0 4 1;
#X connect 2 0 1 0;
#X connect 3 0 4 0;
#X connect 4 0 11 0;
#X connect 5 0 6 0;
#X connect 6 0 7 0;
#X connect 7 0 8 0;
#X connect 8 0 9 0;
#X connect 9 0 10 1;
#X connect 9 0 15 0;
#X connect 11 0 5 0;
#X connect 12 0 11 1;
#X connect 13 0 8 1;
#X connect 14 0 0 0;
#X connect 16 0 7 1;
#X connect 17 0 16 0;
#X connect 18 0 20 0;
#X connect 18 1 33 0;
#X connect 19 0 22 1;
#X connect 20 0 19 0;
#X connect 21 0 22 0;
#X connect 22 0 29 0;
#X connect 23 0 24 0;
#X connect 24 0 25 0;
#X connect 25 0 26 0;
#X connect 26 0 27 0;
#X connect 27 0 28 1;
#X connect 27 0 32 0;
#X connect 27 0 36 0;
#X connect 29 0 23 0;
#X connect 30 0 29 1;
#X connect 31 0 26 1;
#X connect 33 0 35 0;
#X connect 34 0 25 1;
#X connect 35 0 34 0;
#X connect 37 0 40 0;
#X connect 38 0 40 0;
#X connect 39 0 18 0;
#X connect 40 0 39 0;
