#N canvas 664 173 1659 794 12;
#X obj 344 245 sinusoid;
#A saved 440;
#X obj 282 503 output;
#X obj 523 305 adsr;
#A saved 0.04 0.04 50 0.19;
#X obj 513 215 sinusoid;
#A saved 0.5;
#X obj 74 296 myosc1-try;
#X obj 40 417 output;
#X obj 80 212 mtof;
#X floatatom 79 177 5 0 0 0 - - -;
#X obj 81 361 multiply;
#X obj 87 148 t b b;
#X obj 182 293 constant;
#A saved 1 1;
#X obj 85 96 bng 15 250 50 0 empty empty empty 17 7 0 10 -262144 -1
-1;
#X obj 324 423 multiply;
#X obj 1024 187 adsr;
#A saved 0.06 1 0.02 0.07;
#X obj 1014 97 sinusoid;
#A saved 0.5;
#X obj 860 273 myosc1-try;
#X obj 842 494 output;
#X obj 866 189 mtof;
#X floatatom 865 154 5 0 0 0 - - -;
#X obj 867 338 multiply;
#X obj 873 125 t b b;
#X obj 871 73 bng 15 250 50 0 empty empty empty 17 7 0 10 -262144 -1
-1;
#X obj 995 494 record;
#X obj 878 415 multiply;
#X obj 1037 390 constant;
#A saved 1 0.4;
#X connect 0 0 12 0;
#X connect 2 0 12 1;
#X connect 3 0 2 0;
#X connect 4 0 8 0;
#X connect 6 0 4 0;
#X connect 7 0 6 0;
#X connect 8 0 5 1;
#X connect 9 0 7 0;
#X connect 10 0 8 1;
#X connect 11 0 9 0;
#X connect 12 0 1 1;
#X connect 13 0 19 1;
#X connect 14 0 13 0;
#X connect 15 0 19 0;
#X connect 17 0 15 0;
#X connect 18 0 17 0;
#X connect 19 0 23 0;
#X connect 20 0 18 0;
#X connect 21 0 20 0;
#X connect 23 0 16 1;
#X connect 23 0 22 0;
#X connect 24 0 23 1;
