#N canvas 691 30 847 975 16;
#X floatatom 103 123 7 0 10000 1 attack - - 0;
#X obj 24 48 inlet~;
#X floatatom 103 146 7 0 10000 1 decay - - 0;
#X obj 24 305 b;
#X obj 143 5 loadbang;
#X obj 579 166 f;
#X obj 482 114 savestate;
#X obj 143 34 spigot 1;
#X msg 240 33 0;
#X obj 579 216 pack 0 0 0 0;
#X floatatom 103 170 7 0 100 1 sustain - - 0;
#X floatatom 103 193 7 0 10000 1 release - - 0;
#X msg 124 68 0.05;
#X msg 169 67 1;
#X msg 209 67 50;
#X msg 253 67 1;
#X text 126 514 on attack \, set a;
#X text 83 527 delay to go to sustain;
#X text 156 550 recall sustain value;
#X text 481 674 pack with decay time;
#X text 503 577 on release ramp;
#X text 504 594 back to zero;
#X obj 366 579 * 0.01;
#X text 144 577 convert from percent;
#X obj 392 736 vline~;
#X obj 491 259 unpack 0 0 0 0;
#X obj 443 775 *~;
#X obj 369 911 outlet~;
#X obj 133 305 b;
#X msg 253 490 stop;
#X obj 322 501 del;
#X obj 366 546 f;
#X obj 510 551 pack 0 0;
#X obj 366 609 sqrt;
#X obj 43 608 pack 1 0;
#X obj 391 372 * 1000;
#X obj 466 371 * 1000;
#X obj 559 373 * 1000;
#X obj 366 694 pack 0 0;
#X obj 23 256 threshold~ 1e-12 2 1e-13 2, f 12;
#X obj 135 220 tgl 15 0 empty empty empty 17 7 0 10 #fcfcfc #000000
#000000 0 1;
#X text 151 216 curveball;
#X obj 366 667 spigot;
#X obj 250 323 == 0;
#X obj 373 30 loadbang;
#X msg 373 59 0;
#X obj 290 664 spigot;
#X obj 407 845 -~;
#X obj 407 874 *~;
#X connect 0 0 5 1;
#X connect 0 0 35 0;
#X connect 1 0 39 0;
#X connect 2 0 9 1;
#X connect 2 0 36 0;
#X connect 3 0 34 0;
#X connect 3 0 30 0;
#X connect 4 0 7 0;
#X connect 5 0 9 0;
#X connect 6 0 8 0;
#X connect 6 0 25 0;
#X connect 6 1 5 0;
#X connect 7 0 12 0;
#X connect 7 0 13 0;
#X connect 7 0 15 0;
#X connect 7 0 14 0;
#X connect 8 0 7 1;
#X connect 9 0 6 0;
#X connect 10 0 9 2;
#X connect 10 0 31 1;
#X connect 11 0 9 3;
#X connect 11 0 37 0;
#X connect 12 0 2 0;
#X connect 13 0 2 0;
#X connect 14 0 10 0;
#X connect 15 0 11 0;
#X connect 22 0 33 0;
#X connect 22 0 46 0;
#X connect 24 0 26 0;
#X connect 24 0 26 1;
#X connect 24 0 47 1;
#X connect 24 0 27 0;
#X connect 25 0 0 0;
#X connect 25 1 2 0;
#X connect 25 2 10 0;
#X connect 25 3 11 0;
#X connect 26 0 47 0;
#X connect 28 0 29 0;
#X connect 28 0 32 0;
#X connect 29 0 30 0;
#X connect 30 0 31 0;
#X connect 31 0 22 0;
#X connect 32 0 24 0;
#X connect 33 0 42 0;
#X connect 34 0 24 0;
#X connect 35 0 30 1;
#X connect 35 0 34 1;
#X connect 36 0 38 1;
#X connect 37 0 32 1;
#X connect 38 0 24 0;
#X connect 39 0 3 0;
#X connect 39 1 28 0;
#X connect 40 0 43 0;
#X connect 40 0 42 1;
#X connect 40 0 48 1;
#X connect 42 0 38 0;
#X connect 43 0 46 1;
#X connect 44 0 45 0;
#X connect 45 0 40 0;
#X connect 46 0 38 0;
#X connect 47 0 48 0;
#X connect 48 0 27 0;
#X coords 0 -1 1 1 147 140 1 100 100;
