#N canvas 49 89 434 387 16;
#X floatatom 103 123 7 0 10000 1 peak - -;
#X obj 24 313 outlet~;
#X obj 103 3 loadbang;
#X obj 24 48 inlet~;
#X floatatom 103 146 7 0 10000 1 "Q" - -;
#X obj 25 275 vcf~;
#X msg 103 67 1000;
#X obj 41 232 +~;
#X obj 40 193 inlet~;
#X obj 375 193 f;
#X obj 375 222 pack;
#X obj 288 135 savestate;
#X obj 288 316 unpack;
#X obj 103 32 spigot 1;
#X msg 200 31 1;
#X connect 0 0 7 1;
#X connect 0 0 9 1;
#X connect 2 0 13 0;
#X connect 3 0 5 0;
#X connect 4 0 5 2;
#X connect 4 0 10 1;
#X connect 5 0 1 0;
#X connect 6 0 0 0;
#X connect 7 0 5 1;
#X connect 8 0 7 0;
#X connect 9 0 10 0;
#X connect 10 0 11 0;
#X connect 11 0 12 0;
#X connect 11 0 14 0;
#X connect 11 1 9 0;
#X connect 12 0 0 0;
#X connect 12 1 4 0;
#X connect 13 0 6 0;
#X connect 14 0 13 1;
#X coords 0 -1 1 1 130 70 1 100 100;
