#N canvas 639 213 382 276 16;
#X floatatom 103 123 7 0 0 1 freq - -;
#X obj 24 222 outlet~;
#X obj 24 48 inlet~;
#X obj 24 177 hip~;
#X obj 262 45 f;
#X obj 261 79 savestate;
#X obj 103 7 loadbang;
#X msg 103 65 4000;
#X obj 103 36 spigot 1;
#X msg 190 37 0;
#X connect 0 0 3 1;
#X connect 0 0 4 1;
#X connect 2 0 3 0;
#X connect 3 0 1 0;
#X connect 4 0 5 0;
#X connect 5 0 0 0;
#X connect 5 0 9 0;
#X connect 5 1 4 0;
#X connect 6 0 8 0;
#X connect 7 0 0 0;
#X connect 8 0 7 0;
#X connect 9 0 8 1;
#X coords 0 -1 1 1 125 47 1 100 100;
