#N canvas 29 70 469 394 16;
#X floatatom 103 123 7 0 0 1 high - -;
#X obj 24 313 outlet~;
#X obj 103 5 loadbang;
#X obj 24 48 inlet~;
#X floatatom 103 146 7 0 0 1 low - -;
#X msg 103 67 1;
#X obj 25 275 clip~;
#X obj 375 209 f;
#X obj 375 238 pack;
#X obj 288 145 savestate;
#X obj 288 249 unpack;
#X obj 103 34 spigot 1;
#X msg 194 34 0;
#X connect 0 0 6 2;
#X connect 0 0 7 1;
#X connect 2 0 11 0;
#X connect 3 0 6 0;
#X connect 4 0 6 1;
#X connect 4 0 8 1;
#X connect 5 0 0 0;
#X connect 6 0 1 0;
#X connect 7 0 8 0;
#X connect 8 0 9 0;
#X connect 9 0 10 0;
#X connect 9 0 12 0;
#X connect 9 1 7 0;
#X connect 10 0 0 0;
#X connect 10 1 4 0;
#X connect 11 0 5 0;
#X connect 12 0 11 1;
#X coords 0 -1 1 1 130 70 1 100 100;
