#N canvas 166 85 606 401 16;
#X obj 49 199 b;
#X msg 49 228 \; pd dsp 1;
#X obj 158 350 outlet~;
#X floatatom 104 125 7 0 0 0 - - -;
#X obj 157 316 sig~;
#X obj 190 102 vradio 15 1 0 3 empty empty empty 0 -8 0 10 -262144
-1 -1 1;
#X text 209 101 1000;
#X text 209 114 1;
#X text 209 128 0.001;
#X obj 191 10 loadbang;
#X msg 191 67 1;
#X obj 189 158 sel 0 1 2;
#X msg 189 190 1000;
#X msg 240 190 1;
#X msg 283 190 0.001;
#X obj 173 233 t b f;
#X obj 171 269 *;
#X obj 261 102 bng 13 250 50 0 empty empty empty 17 7 0 10 -262144
-1 -1;
#X msg 104 70 0;
#X obj 476 218 f;
#X obj 476 247 pack;
#X obj 416 121 savestate;
#X obj 416 292 unpack;
#X obj 191 39 spigot 1;
#X msg 282 40 0;
#X connect 0 0 1 0;
#X connect 3 0 0 0;
#X connect 3 0 16 0;
#X connect 3 0 20 1;
#X connect 4 0 2 0;
#X connect 5 0 11 0;
#X connect 5 0 19 1;
#X connect 9 0 23 0;
#X connect 10 0 5 0;
#X connect 11 0 12 0;
#X connect 11 1 13 0;
#X connect 11 2 14 0;
#X connect 12 0 15 0;
#X connect 13 0 15 0;
#X connect 14 0 15 0;
#X connect 15 0 16 0;
#X connect 15 1 16 1;
#X connect 16 0 4 0;
#X connect 17 0 18 0;
#X connect 18 0 3 0;
#X connect 19 0 20 0;
#X connect 20 0 21 0;
#X connect 21 0 22 0;
#X connect 21 1 19 0;
#X connect 22 0 5 0;
#X connect 22 0 24 0;
#X connect 22 1 3 0;
#X connect 23 0 10 0;
#X connect 24 0 23 1;
#X coords 0 -1 1 1 175 50 1 100 100;
