#N canvas 502 485 318 359 16;
#X obj 37 35 inlet~;
#X obj 179 203 vu 15 120 empty empty -1 -8 0 10 -66577 -1 0 0;
#X obj 37 64 env~ 8192;
#X obj 120 93 - 88;
#X obj 37 93 moses 1;
#X msg 38 123 -100;
#X obj 181 95 int;
#X obj 180 64 * 100;
#X obj 181 124 / 100;
#X floatatom 104 301 6 0 0 0 - - -, f 6;
#X obj 214 233 loadbang;
#X msg 214 262 \; pd dsp 1;
#X obj 15 163 dbtorms;
#X floatatom 103 256 6 0 0 0 - - -, f 6;
#X text 114 232 RMS;
#X text 118 279 dB;
#X connect 0 0 2 0;
#X connect 2 0 4 0;
#X connect 2 0 7 0;
#X connect 2 0 12 0;
#X connect 3 0 1 0;
#X connect 4 0 5 0;
#X connect 4 1 3 0;
#X connect 5 0 1 0;
#X connect 6 0 8 0;
#X connect 7 0 6 0;
#X connect 8 0 9 0;
#X connect 10 0 11 0;
#X connect 12 0 13 0;
#X coords 0 -1 1 1 100 125 1 100 200;
