#N canvas 1015 491 497 412 16;
#X obj 234 167 b;
#X msg 234 196 \; pd dsp 1;
#X obj 23 172 inlet~;
#X obj 23 243 *~;
#X obj 109 176 inlet~;
#X obj 24 277 outlet~;
#X connect 0 0 1 0;
#X connect 2 0 3 0;
#X connect 3 0 5 0;
#X connect 4 0 3 1;
#X coords 0 -1 1 1 90 25 1 100 100;
