#N canvas 67 316 530 424 16;
#X obj 43 186 osc~;
#X floatatom 103 121 7 0 10000 1 F - -;
#X obj 44 356 outlet~;
#X floatatom 103 144 7 0 10000 1 BW - -;
#X obj 149 212 max 1;
#X obj 149 245 t b f;
#X obj 149 274 /;
#X obj 44 226 *~;
#X obj 44 320 expr~ exp(-$v1*$v1);
#X obj 34 153 * 0.5;
#X obj 348 242 f;
#X obj 348 271 pack;
#X obj 288 145 savestate;
#X obj 288 316 unpack;
#X connect 0 0 7 0;
#X connect 1 0 9 0;
#X connect 1 0 10 1;
#X connect 3 0 6 0;
#X connect 3 0 11 1;
#X connect 4 0 5 0;
#X connect 5 0 6 0;
#X connect 5 1 6 1;
#X connect 6 0 7 1;
#X connect 7 0 8 0;
#X connect 8 0 2 0;
#X connect 9 0 0 0;
#X connect 9 0 4 0;
#X connect 10 0 11 0;
#X connect 11 0 12 0;
#X connect 12 0 13 0;
#X connect 12 1 10 0;
#X connect 13 0 1 0;
#X connect 13 1 3 0;
#X coords 0 -1 1 1 100 67 1 100 100;
