#N canvas 525 261 330 301 16;
#X obj 54 212 osc~;
#X floatatom 103 142 7 0 0 1 Hz - -;
#X obj 54 183 +~ 0;
#X obj 54 241 outlet~;
#X obj 54 56 inlet~;
#X obj 103 120 bng 20 50 50 0 empty empty reset 23 10 0 16 -262144
-1 -1;
#X msg 165 195 0;
#X obj 221 111 f;
#X obj 220 145 savestate;
#X connect 0 0 3 0;
#X connect 1 0 2 1;
#X connect 1 0 7 1;
#X connect 2 0 0 0;
#X connect 4 0 2 0;
#X connect 5 0 6 0;
#X connect 6 0 0 1;
#X connect 7 0 8 0;
#X connect 7 0 1 0;
#X connect 8 0 1 0;
#X connect 8 1 7 0;
#X coords 0 -1 1 1 100 67 1 100 100;
