#N struct line-label float x float y float z symbol label;
#N canvas 166 0 1226 1020 16;
#X declare -path lib;
#X scalar line-label 7 221.945 746 -30dB \;;
#X scalar line-label 7 238.6 746 -40dB \;;
#X scalar line-label 7 192.327 746 -20dB \;;
#X scalar line-label 7 139.659 746 -10dB \;;
#X scalar line-label 7 46 746 0dB \;;
#X obj 65 11 inlet~;
#X floatatom 561 115 3 0 150 1 scale(dB) - - 0;
#X obj 326 116 bng 20 250 50 0 empty empty empty 23 10 0 16 #fcfcfc
#000000 #000000;
#X obj 220 427 metro;
#N canvas 36 401 690 613 fft-analysis 0;
#X obj 274 411 block~;
#X obj 478 304 loadbang;
#X obj 421 144 bang~;
#X obj 82 108 inlet~;
#X obj 501 105 inlet;
#X msg 501 134 1;
#X msg 551 137 0;
#X obj 472 190 spigot;
#X msg 274 382 set \$1 1;
#X obj 368 526 array define \$0-temp 1000;
#X obj 192 540 tabsend~ \$0-temp;
#N canvas 0 50 576 591 into-fft 0;
#X obj 80 210 rfft~;
#X obj 156 125 tabreceive~ \$0-hann;
#X obj 78 341 sqrt~;
#X obj 78 311 +~ 1e-20;
#X obj 75 372 sqrt~;
#X obj 111 245 *~;
#X obj 77 245 *~;
#X obj 76 273 +~;
#X obj 82 108 inlet~;
#X obj 88 160 *~;
#X obj 78 429 clip~ 0 1.03;
#X obj 79 401 *~ 0.083;
#X obj 77 460 tabsend~ \$0-temp;
#X obj 223 218 outlet~;
#X connect 0 0 6 0;
#X connect 0 0 6 1;
#X connect 0 1 5 0;
#X connect 0 1 5 1;
#X connect 1 0 9 1;
#X connect 2 0 4 0;
#X connect 3 0 2 0;
#X connect 4 0 11 0;
#X connect 5 0 7 1;
#X connect 6 0 7 0;
#X connect 7 0 3 0;
#X connect 8 0 9 0;
#X connect 8 0 13 0;
#X connect 9 0 0 0;
#X connect 10 0 12 0;
#X connect 11 0 10 0;
#X restore 83 139 pd into-fft;
#N canvas 0 50 437 461 outta-fft 0;
#X obj 78 27 inlet~;
#X obj 240 30 inlet;
#X obj 97 334 tabwrite~ \$0a;
#X obj 155 290 tabread4~ \$0-temp;
#X obj 253 239 line~;
#X obj 240 59 samplerate~;
#X floatatom 281 92 5 0 0 0 - - - 0;
#X msg 250 199 0 \, 44100 \$1;
#X floatatom 264 160 5 0 0 0 - - - 0;
#X obj 39 133 expr 4.41e7/$f1;
#X obj 239 125 / 44.1;
#X connect 1 0 2 0;
#X connect 1 0 5 0;
#X connect 3 0 2 0;
#X connect 4 0 3 0;
#X connect 5 0 6 0;
#X connect 6 0 10 0;
#X connect 7 0 4 0;
#X connect 10 0 7 0;
#X connect 10 0 8 0;
#X restore 83 207 pd outta-fft;
#X msg 478 333 4096;
#X obj 478 362 s \$0-window-size;
#X obj 274 355 r \$0-window-size;
#X connect 1 0 13 0;
#X connect 2 0 7 0;
#X connect 3 0 11 0;
#X connect 4 0 5 0;
#X connect 5 0 7 1;
#X connect 6 0 7 1;
#X connect 7 0 6 0;
#X connect 7 0 12 1;
#X connect 8 0 0 0;
#X connect 11 0 12 0;
#X connect 13 0 14 0;
#X connect 15 0 8 0;
#X restore 22 612 pd fft-analysis;
#N canvas 296 263 749 457 hann-window 0;
#N canvas 0 50 450 300 (subpatch) 0;
#X array \$0-hann 4096 float 0;
#X coords 0 1 4095 0 300 100 1;
#X restore 82 311 graph;
#X obj 413 188 osc~;
#X obj 413 213 *~ -0.5;
#X obj 413 237 +~ 0.5;
#X obj 366 270 tabwrite~ \$0-hann;
#X obj 38 173 /;
#X obj 127 142 samplerate~;
#X obj 38 251 s window-sec;
#X obj 177 204 swap;
#X obj 177 228 /;
#X obj 177 252 s window-hz;
#X obj 49 201 * 1000;
#X obj 49 228 s window-msec;
#X obj 38 115 t f b f;
#X msg 209 91 resize \$1;
#X obj 209 120 s \$0-hann;
#X obj 333 130 r window-hz;
#X msg 385 155 0;
#X obj 333 156 t f b;
#X text 15 8 calculate Hann window table (variable window size) and
constants window-hz (fundamental frequency of analysis) \, window-sec
and window-msec (analysis window size in seconds and msec).;
#X obj 631 53 r window-hz;
#X floatatom 584 70 5 0 0 0 - - - 0;
#X obj 586 235 *~ -0.5;
#X obj 586 259 +~ 0.5;
#X obj 539 292 tabwrite~ \$0-hann;
#X obj 586 210 cos~;
#X obj 587 181 clip~ 0 1;
#X msg 587 125 0 \, \$1 1000;
#X obj 587 150 line~;
#X obj 600 94 *;
#X msg 518 33 1;
#X msg 602 33 2;
#X msg 638 33 3;
#X obj 551 100 b;
#X msg 561 35 1.5;
#X obj 37 88 r \$0-window-size;
#X connect 1 0 2 0;
#X connect 2 0 3 0;
#X connect 3 0 4 0;
#X connect 5 0 7 0;
#X connect 5 0 11 0;
#X connect 6 0 5 1;
#X connect 6 0 8 1;
#X connect 8 0 9 0;
#X connect 8 1 9 1;
#X connect 9 0 10 0;
#X connect 11 0 12 0;
#X connect 13 0 5 0;
#X connect 13 0 8 0;
#X connect 13 1 6 0;
#X connect 13 2 14 0;
#X connect 14 0 15 0;
#X connect 16 0 18 0;
#X connect 17 0 1 1;
#X connect 18 0 1 0;
#X connect 18 1 4 0;
#X connect 18 1 17 0;
#X connect 20 0 29 1;
#X connect 21 0 29 0;
#X connect 21 0 33 0;
#X connect 22 0 23 0;
#X connect 23 0 24 0;
#X connect 25 0 22 0;
#X connect 26 0 25 0;
#X connect 27 0 28 0;
#X connect 28 0 26 0;
#X connect 29 0 27 0;
#X connect 30 0 21 0;
#X connect 31 0 21 0;
#X connect 32 0 21 0;
#X connect 33 0 24 0;
#X connect 34 0 21 0;
#X connect 35 0 13 0;
#X restore 383 591 pd hann-window;
#N canvas 397 117 780 308 startup 0;
#X obj 170 85 declare -path lib;
#X obj 458 83 array define impulse 100;
#X msg 459 139 \; impulse 0 1;
#X obj 458 113 loadbang;
#X connect 3 0 2 0;
#X restore 388 619 pd startup;
#N canvas 101 368 840 543 line-label 0;
#X obj 328 371 pointer;
#X obj 71 101 drawpolygon 0 1 0 0 z 0;
#X obj 148 403 append line-label x y z;
#X obj 67 74 struct line-label float x float y float z symbol label
;
#X obj 131 248 f;
#X floatatom 340 248 5 0 0 0 - - - 0;
#X obj 340 192 loadbang;
#X msg 47 218 0;
#X msg 83 221 -10;
#X obj 42 404 f;
#X obj 26 482 set -symbol line-label label;
#X obj 39 455 makefilename %ddB;
#X obj 131 273 t f f f b;
#X floatatom 31 296 5 0 0 0 - - - 0;
#X floatatom 31 361 5 0 0 0 - - - 0;
#X msg 122 222 -20;
#X msg 158 222 -30;
#X msg 198 224 -40;
#X msg 475 248 \; pd-test clear;
#X obj 43 429 +;
#X floatatom 86 428 5 0 0 0 - - - 0;
#X msg 328 341 traverse pd-spectrum.pd \, bang;
#X msg 234 227 -200;
#X obj 74 136 drawsymbol label z(0:1000)(5:1005) -4 0;
#X msg 148 365 7 \$1 746;
#X obj 32 323 expr 260 - $f2*exp(log(10)*$f1/40);
#X msg 340 217 214;
#X connect 0 0 2 3;
#X connect 2 0 10 1;
#X connect 4 0 12 0;
#X connect 5 0 25 1;
#X connect 6 0 26 0;
#X connect 7 0 4 0;
#X connect 8 0 4 0;
#X connect 9 0 19 0;
#X connect 11 0 10 0;
#X connect 12 0 9 0;
#X connect 12 2 13 0;
#X connect 12 3 21 0;
#X connect 13 0 25 0;
#X connect 14 0 24 0;
#X connect 15 0 4 0;
#X connect 16 0 4 0;
#X connect 17 0 4 0;
#X connect 19 0 11 0;
#X connect 20 0 19 1;
#X connect 21 0 0 0;
#X connect 22 0 4 0;
#X connect 24 0 2 0;
#X connect 25 0 14 0;
#X connect 26 0 5 0;
#X restore 231 618 pd line-label;
#X obj 29 70 dbtorms;
#X floatatom 444 116 6 0 0 1 Hz - - 0;
#X obj 349 116 tgl 20 0 empty empty repeat: 24 10 0 16 #fcfcfc #000000
#000000 0 1;
#X obj 456 439 max 0.01;
#X obj 456 468 t b f;
#X obj 475 528 /;
#X msg 361 61 0;
#X obj 316 27 t b b;
#X msg 456 497 1000;
#X obj 219 462 b;
#X obj 28 120 *~;
#N canvas 2 52 450 300 (subpatch) 0;
#X array \$0a 384 float 0;
#X coords 0 1 383 0 768 200 1;
#X restore 106 142 graph;
#X text 120 338 |;
#X text 196 339 |;
#X text 290 339 |;
#X text 385 339 |;
#X text 481 339 |;
#X text 188 354 500;
#X text 275 358 1000;
#X text 374 357 1500;
#X text 472 354 2000;
#X text 139 338 |;
#X text 157 338 |;
#X text 176 338 |;
#X text 214 338 |;
#X text 233 338 |;
#X text 251 338 |;
#X text 270 338 |;
#X text 308 338 |;
#X text 328 338 |;
#X text 346 338 |;
#X text 366 338 |;
#X text 404 338 |;
#X text 424 338 |;
#X text 442 338 |;
#X text 461 338 |;
#X text 500 338 |;
#X text 519 338 |;
#X text 537 338 |;
#X text 556 338 |;
#X text 576 339 |;
#X text 595 338 |;
#X text 614 338 |;
#X text 632 338 |;
#X text 567 355 2500;
#X text 652 338 |;
#X text 672 339 |;
#X text 691 338 |;
#X text 710 338 |;
#X text 728 338 |;
#X text 748 338 |;
#X text 663 355 3000;
#X text 767 339 |;
#X text 786 338 |;
#X text 805 338 |;
#X text 823 338 |;
#X text 843 338 |;
#X text 753 358 3500;
#X text 860 338 |;
#X text 851 354 4000;
#X text 106 354 F (Hz.);
#X msg 551 36 \; pd dsp 1;
#X obj 467 56 sel 1;
#X obj 721 36 loadbang;
#X msg 721 65 100;
#X obj 159 53 - 20;
#X msg 668 63 1;
#X text 256 114 record;
#X obj 978 218 loadbang;
#X msg 978 247 \; pd dsp 1;
#X connect 5 0 23 0;
#X connect 6 0 78 0;
#X connect 7 0 20 0;
#X connect 8 0 22 0;
#X connect 13 0 23 1;
#X connect 14 0 16 0;
#X connect 15 0 8 0;
#X connect 15 0 75 0;
#X connect 16 0 17 0;
#X connect 17 0 21 0;
#X connect 17 1 18 1;
#X connect 18 0 8 1;
#X connect 19 0 15 0;
#X connect 20 0 22 0;
#X connect 20 1 19 0;
#X connect 20 1 74 0;
#X connect 21 0 18 0;
#X connect 22 0 9 1;
#X connect 23 0 9 0;
#X connect 75 0 74 0;
#X connect 76 0 77 0;
#X connect 76 0 79 0;
#X connect 77 0 6 0;
#X connect 78 0 13 0;
#X connect 79 0 14 0;
#X connect 81 0 82 0;
#X coords 0 0 820 300 845 280 1 100 100;
