#N canvas 488 263 382 360 16;
#X obj 173 103 tgl 20 0 empty empty empty 24 10 0 16 -262144 -1 -1
0 1;
#X obj 179 153 b;
#X msg 179 182 \; pd dsp 1;
#X obj 29 159 inlet~;
#X obj 29 195 *~;
#X obj 30 229 outlet~;
#X obj 237 147 savestate;
#X obj 238 106 f;
#X connect 0 0 1 0;
#X connect 0 0 4 1;
#X connect 0 0 7 1;
#X connect 1 0 2 0;
#X connect 3 0 4 0;
#X connect 4 0 5 0;
#X connect 6 0 0 0;
#X connect 6 1 7 0;
#X connect 7 0 6 0;
#X coords 0 -1 1 1 95 25 1 100 100;
