#N canvas 10 196 886 517 12;
#X obj 108 67 inlet;
#X obj 108 141 sinusoid;
#A saved 0;
#X obj 109 311 outlet~;
#X obj 232 98 * 1.015;
#X obj 228 140 sinusoid;
#A saved 0;
#X obj 343 141 sinusoid;
#A saved 0;
#X obj 458 141 sinusoid;
#A saved 0;
#X obj 574 139 sinusoid;
#A saved 0;
#X obj 351 104 * 0.503;
#X obj 462 99 * 1.496;
#X obj 578 97 * 2.01;
#X obj 439 238 *~ 0.5;
#X obj 575 237 *~ 0.25;
#X obj 705 136 sinusoid;
#A saved 0;
#X obj 713 99 * 3;
#X connect 0 0 1 0;
#X connect 0 0 3 0;
#X connect 0 0 8 0;
#X connect 0 0 9 0;
#X connect 0 0 10 0;
#X connect 0 0 14 0;
#X connect 1 0 2 0;
#X connect 3 0 4 0;
#X connect 4 0 2 0;
#X connect 6 0 11 0;
#X connect 7 0 12 0;
#X connect 8 0 5 0;
#X connect 9 0 6 0;
#X connect 10 0 7 0;
#X connect 11 0 2 0;
#X connect 12 0 2 0;
#X connect 13 0 2 0;
#X connect 14 0 13 0;
