#N canvas 1659 126 557 791 12;
#X obj 104 436 osc~;
#X obj 104 409 line~;
#X obj 145 553 *~;
#X obj 161 532 *~;
#X obj 111 220 metro 6;
#X obj 104 368 + 800;
#X obj 161 507 *~ 0.9;
#X obj 161 487 lop~ 10;
#N canvas 405 235 406 460 bilexp 0;
#X obj 4 48 random 8192;
#X obj 4 122 * 9;
#X obj 4 99 / 4096;
#X obj 72 74 > 4096;
#X obj 72 96 sel 0 1;
#X msg 72 119 -1;
#X msg 104 119 1;
#X obj 4 166 *;
#X obj 4 187 / 23000;
#X obj 4 27 t b;
#X obj 4 7 inlet;
#X obj 4 209 outlet;
#X obj 4 75 mod 4096;
#X obj 4 144 exp;
#X connect 0 0 3 0;
#X connect 0 0 12 0;
#X connect 1 0 13 0;
#X connect 2 0 1 0;
#X connect 3 0 4 0;
#X connect 4 0 5 0;
#X connect 4 1 6 0;
#X connect 5 0 7 1;
#X connect 6 0 7 1;
#X connect 7 0 8 0;
#X connect 8 0 11 0;
#X connect 9 0 0 0;
#X connect 10 0 9 0;
#X connect 12 0 2 0;
#X connect 13 0 7 0;
#X restore 104 259 pd bilexp;
#X obj 161 467 clip~ 0 1;
#X obj 104 388 pack 1 2.689;
#X obj 104 348 * 1600;
#X msg 112 179 1;
#X obj 161 446 fexpr~ $x1 - $x1[-1];
#X obj 145 579 *~ 0.3;
#X obj 145 601 outlet~;
#X msg 169 180 0;
#X obj 72 31 noise;
#X obj 77 78 highpass;
#A saved 4000;
#X connect 0 0 2 0;
#X connect 1 0 0 0;
#X connect 1 0 13 0;
#X connect 2 0 14 0;
#X connect 3 0 2 1;
#X connect 4 0 8 0;
#X connect 5 0 10 0;
#X connect 6 0 3 0;
#X connect 6 0 3 1;
#X connect 7 0 6 0;
#X connect 8 0 11 0;
#X connect 9 0 7 0;
#X connect 10 0 1 0;
#X connect 11 0 5 0;
#X connect 12 0 4 0;
#X connect 13 0 9 0;
#X connect 14 0 15 0;
#X connect 16 0 4 0;
#X connect 17 0 18 0;
