#N canvas 1281 213 846 671 12;
#X obj 282 298 osc~ 440;
#X obj 283 339 *~;
#X obj 282 383 dac~;
#X obj 373 308 line~;
#X msg 384 228 0.1 100;
#X msg 426 271 0 100;
#X obj 281 268 line~;
#X msg 200 220 440 100;
#X msg 276 220 660 100;
#X obj 201 118 delay 0.5 1 sec;
#X obj 267 55 bng 15 250 50 0 empty empty empty 17 7 0 10 -262144 -1
-1;
#X obj 201 145 delay 1 1 sec;
#X obj 202 174 delay 1.5 1 sec;
#X obj 356 127 delay 2 1 sec;
#X obj 358 155 delay 3 1 sec;
#X obj 360 185 delay 3.5 1 sec;
#X connect 0 0 1 0;
#X connect 1 0 2 0;
#X connect 1 0 2 1;
#X connect 3 0 1 1;
#X connect 4 0 3 0;
#X connect 5 0 3 0;
#X connect 6 0 0 0;
#X connect 7 0 6 0;
#X connect 8 0 6 0;
#X connect 9 0 8 0;
#X connect 10 0 4 0;
#X connect 10 0 9 0;
#X connect 10 0 11 0;
#X connect 10 0 12 0;
#X connect 10 0 13 0;
#X connect 10 0 14 0;
#X connect 10 0 15 0;
#X connect 11 0 7 0;
#X connect 12 0 5 0;
#X connect 13 0 4 0;
#X connect 13 0 8 0;
#X connect 14 0 7 0;
#X connect 15 0 5 0;
