#N canvas 1586 149 904 718 12;
#N canvas 0 50 450 250 (subpatch) 0;
#X array myFreq 8 float 3;
#A 0 261.626 329.628 391.995 523.251 659.255 783.991 1046.5 1318.51
;
#X coords 0 1400 8 200 200 200 1 0 0;
#X restore 32 30 graph;
#X obj 273 499 osc~ 220;
#X floatatom 273 409 5 0 7 0 - - -;
#X floatatom 273 470 5 0 0 0 - - -;
#X obj 356 577 *~;
#X obj 356 618 dac~;
#X obj 422 615 line~;
#X msg 476 572 0 20;
#X obj 273 298 float 0;
#X obj 346 270 + 1;
#X obj 273 271 bng 15 250 50 0 empty empty empty 17 7 0 10 -262144
-1 -1;
#X obj 273 219 tgl 15 0 empty empty empty 17 7 0 10 -262144 -1 -1 0
1;
#X obj 273 329 mod 8;
#X floatatom 273 364 5 0 0 0 - - -;
#X obj 273 439 tabread myFreq;
#X msg 351 309 0;
#X obj 405 500 osc~ 220;
#X floatatom 405 410 5 0 7 0 - - -;
#X floatatom 405 471 5 0 0 0 - - -;
#X obj 405 299 float 0;
#X obj 478 271 + 1;
#X obj 405 272 bng 15 250 50 0 empty empty empty 17 7 0 10 -262144
-1 -1;
#X obj 405 220 tgl 15 0 empty empty empty 17 7 0 10 -262144 -1 -1 0
1;
#X obj 405 330 mod 8;
#X floatatom 405 365 5 0 0 0 - - -;
#X obj 405 440 tabread myFreq;
#X msg 483 310 0;
#X obj 355 193 tgl 15 0 empty empty empty 17 7 0 10 -262144 -1 -1 0
1;
#X msg 239 31 \; myFreq resize 8 \; myFreq bounds 0 1400 8 200 \; myFreq
xlabel 200 0 2 4 6 8 \; myFreq ylabel 0 200 400 600 800 1000 1200 1400
\;;
#X msg 239 113 \; myFreq 0 261.626 329.628 391.995 523.251 659.255
783.991 1046.5 1318.51;
#X msg 420 572 0.1 20;
#X obj 594 430 route 0 1;
#X obj 405 243 metro 125;
#X obj 273 242 metro 150;
#X connect 1 0 4 0;
#X connect 2 0 14 0;
#X connect 3 0 1 0;
#X connect 4 0 5 0;
#X connect 4 0 5 1;
#X connect 6 0 4 1;
#X connect 7 0 6 0;
#X connect 8 0 12 0;
#X connect 9 0 8 1;
#X connect 10 0 8 0;
#X connect 11 0 33 0;
#X connect 12 0 13 0;
#X connect 13 0 9 0;
#X connect 13 0 2 0;
#X connect 14 0 3 0;
#X connect 15 0 8 1;
#X connect 16 0 4 0;
#X connect 17 0 25 0;
#X connect 18 0 16 0;
#X connect 19 0 23 0;
#X connect 20 0 19 1;
#X connect 21 0 19 0;
#X connect 22 0 32 0;
#X connect 23 0 24 0;
#X connect 24 0 20 0;
#X connect 24 0 17 0;
#X connect 25 0 18 0;
#X connect 26 0 19 1;
#X connect 27 0 11 0;
#X connect 27 0 22 0;
#X connect 27 0 15 0;
#X connect 27 0 26 0;
#X connect 27 0 31 0;
#X connect 30 0 6 0;
#X connect 31 0 7 0;
#X connect 31 1 30 0;
#X connect 32 0 21 0;
#X connect 33 0 10 0;
